<svg width="451" height="330" viewBox="0 0 451 330" fill="none" xmlns="http://www.w3.org/2000/svg">
<g clip-path="url(#clip0_333_2198)">
<rect width="450" height="330" transform="translate(0.5)" fill="white"/>
<path d="M332.943 75.683C332.54 77.3767 331.784 78.9824 331.071 80.5709C326.549 90.6567 314.037 132.161 387.5 176.5C470.796 219.74 381.704 290.7 333.516 302.754C271.093 318.369 201.516 271.331 169.893 310.024C138.271 348.716 42.1568 279.499 85.6583 219.071C139.772 143.901 108.297 132.743 97.4998 99.9999C89.7507 76.5004 108.899 21.7335 170.286 42.0277C221.942 59.1044 231.155 40.7202 243.542 29.8937C262.17 5.43306 344.32 27.8172 332.943 75.683Z" fill="#FFEFE3"/>
<circle cx="379.505" cy="87.5625" r="23.9951" fill="#FFEFE3"/>
<circle cx="64.8838" cy="177.299" r="14.1162" fill="#FFEFE3"/>
<path d="M102.376 232.896C112.591 209.34 141.376 202.93 154.492 202.669L177.944 231.333L219.637 202.669C227.976 204.146 250.464 204.334 265.76 212.832C293.902 228.466 304.065 288.4 308.234 315.761C311.57 337.649 282.697 341.905 267.844 341.297H119.574V325.663C109.585 304.556 92.1614 256.453 102.376 232.896Z" fill="#FF770F"/>
<path d="M129.607 134.918C139.092 126.059 147.63 131.835 150.714 135.83C157.489 138.228 162.831 110.511 164.655 96.3522C190.087 105.108 216.423 89.2297 226.412 80.1963C235.376 82.9063 243.176 103.648 245.955 113.681C246.086 119.24 246.763 135.491 248.431 156.025C250.099 176.559 237.052 188.467 230.321 191.855C228.966 195.607 220.983 200.454 217.161 202.408C223.311 203.867 224.154 210.747 223.806 214.004C230.06 213.587 230.755 222.603 230.321 227.163C240.744 237.065 216.597 258.563 203.22 268.074L173.123 250.876L175.338 230.16L154.231 203.581L157.358 198.63C162.674 189.145 155.751 173.484 151.626 166.839C137.163 176.741 117.75 145.993 129.607 134.918Z" fill="#FFB983"/>
<path d="M148.238 71.3364C113.32 88.3262 120.313 122.019 128.173 136.742C139.639 125.797 148.933 133.05 152.147 138.045C160.068 133.667 164.655 109.468 165.957 97.9156C192.328 106.15 217.335 90.576 226.542 81.7597C233.317 83.8443 242.221 104.343 245.825 114.332C260.939 88.7953 243.697 73.6382 233.187 69.2517C199.416 40.171 162.483 58.5245 148.238 71.3364Z" fill="#FF770F"/>
<path d="M222.178 115.895C220.905 114.133 222.712 112.348 223.962 111.544C224.116 111.445 224.292 111.376 224.47 111.332C236.947 108.24 240.162 114.865 240.809 116.547C241.24 117.668 240.214 117.975 239.355 117.998C239.026 118.007 238.713 117.882 238.434 117.707C233.886 114.853 230.404 115.915 226.738 116.547C223.715 117.068 222.438 116.33 222.178 115.895Z" fill="#FF770F"/>
<path d="M178.317 122.121C174.592 122.223 175.253 119.687 176.187 118.179C176.27 118.045 176.375 117.925 176.493 117.82C184.687 110.488 195.946 110.449 198.986 113.941C201.295 116.594 198.885 117.68 197.145 117.942C196.941 117.972 196.732 117.957 196.529 117.917C189.024 116.443 182.295 119.629 179.399 121.722C179.081 121.952 178.709 122.11 178.317 122.121Z" fill="#FF770F"/>
<ellipse cx="189.694" cy="135.202" rx="5.41662" ry="7.16087" fill="#FF770F"/>
<ellipse cx="215.285" cy="173.683" rx="5.07987" ry="8.36142" transform="rotate(10.0324 215.285 173.683)" fill="#FF770F"/>
<ellipse cx="231.327" cy="133.117" rx="5.41662" ry="7.16087" fill="#FF770F"/>
<path d="M215.859 134.657C222.503 143.778 231.415 161.236 213.904 158.109" stroke="#FF770F" stroke-width="3" stroke-linecap="round"/>
<path d="M172.472 249.703C174.643 240.148 178.648 218.303 177.293 207.359C175.599 193.678 171.169 192.506 175.599 189.77C180.029 187.033 189.931 196.675 191.364 201.235C201.787 192.723 223.832 178.513 228.627 189.77C229.452 191.246 228.001 195.606 216.119 201.235C218.985 203.32 223.884 208.505 222.112 214.655C225.761 213.743 231.037 217.587 228.953 228.01C231.472 229.53 234.864 233.148 228.627 242.928C222.894 251.918 208.041 263.47 203.481 267.944" stroke="#FF770F" stroke-width="3" stroke-linecap="round"/>
<path d="M183.417 211.333C185.132 208.727 189.045 203.073 190.973 201.301" stroke="#FF770F" stroke-width="3" stroke-linecap="round"/>
<path d="M200.615 211.659C203.351 208.923 210.334 203.334 215.338 201.822" stroke="#FF770F" stroke-width="3" stroke-linecap="round"/>
<path d="M208.302 221.43C212.124 219.454 219.455 214.421 221.591 214.785" stroke="#FF770F" stroke-width="3" stroke-linecap="round"/>
<path d="M215.337 231.724C218.247 229.726 225.226 225.77 228.562 227.75" stroke="#FF770F" stroke-width="3" stroke-linecap="round"/>
<path d="M135.47 297.781L170.909 251.397C180.029 254.351 199.364 262.446 203.742 271.202C196.843 291.685 180.008 328.186 159.782 339.406" stroke="#FF9E53" stroke-width="3" stroke-linecap="round"/>
<path d="M197.748 333.74C201.501 316.437 197.053 303.947 194.361 299.865L192.471 299.474L171.43 331.069C171.364 332.437 176.315 334.782 182.374 333.349C187.221 332.202 194.643 333.132 197.748 333.74Z" fill="#FFB983"/>
<path d="M192.537 298.171C209.865 296.912 249.76 295.331 267.062 294.914" stroke="#FF9E53" stroke-width="3" stroke-linecap="round"/>
<path d="M251.037 259.215C252.166 268.509 254.45 288.686 254.555 295.045" stroke="#FF9E53" stroke-width="3" stroke-linecap="round"/>
<rect x="287.25" y="87.5625" width="97.5" height="97.5" rx="14.625" fill="#FFB983"/>
<path d="M300.938 157L316.688 138.625L339.188 154.125L361.688 123.375" stroke="#FFEFE3" stroke-width="5" stroke-linecap="round"/>
<circle cx="315.312" cy="140" r="7.125" fill="#FFEFE3"/>
<circle cx="339.188" cy="152.375" r="7.125" fill="#FFEFE3"/>
<circle cx="363.938" cy="120.25" r="7.125" fill="#FFEFE3"/>
</g>
<defs>
<clipPath id="clip0_333_2198">
<rect width="450" height="330" fill="white" transform="translate(0.5)"/>
</clipPath>
</defs>
</svg>
