<svg width="451" height="330" viewBox="0 0 451 330" fill="none" xmlns="http://www.w3.org/2000/svg">
<g clip-path="url(#clip0_191_3466)">
<rect width="450" height="330" transform="translate(0.5)" fill="white"/>
<path d="M282.721 54.9398C282.721 54.9398 235.564 109.856 160.113 77.1001C84.6623 44.344 9.21229 132.979 74.1829 186.932C139.154 240.885 75.5749 270.532 119.714 303.598C169.881 341.179 213.557 264.971 253.378 282.313C341.265 320.588 386.357 296.656 393.559 256.656C393.559 180.156 333.021 178.261 358.171 137.796C383.321 97.3314 327.815 13.1951 282.721 54.9398Z" fill="#FFEFE3"/>
<circle cx="49.5" cy="237.519" r="19.5718" fill="#FFEFE3"/>
<circle cx="407.675" cy="134.399" r="14.1162" fill="#FFEFE3"/>
<path d="M168.651 208.247L166.526 177.122C193.226 221.622 234.651 218.664 252.026 211.622V229.247C252.568 235.455 253.185 257.591 214.402 258.747C176.65 259.872 158.776 223.247 163.651 219.247C167.551 216.047 168.61 210.58 168.651 208.247Z" fill="#FFB983"/>
<path d="M164.525 147.497C160.125 138.097 152.859 137.58 149.775 138.497C142.175 112.197 146.609 93.0388 149.775 86.7471C155.317 77.2888 175.075 57.2723 209.775 52.8723C244.475 48.4723 261.984 65.7056 266.4 74.8723C287.15 77.2473 278.275 136.997 276.9 136.747C275.8 136.547 273.525 140.914 272.525 143.122C270.825 102.022 259.984 88.9139 254.775 87.4973C239.817 91.9139 206.45 99.272 192.65 93.372C178.85 87.472 176.65 105.664 177.275 115.497C174.859 130.08 168.925 156.897 164.525 147.497Z" fill="#FF770F"/>
<path d="M251.901 213.497C228.001 247.297 190.421 246.851 174.213 242.31C168.088 238.06 163.713 228.56 163.088 223.31C162.463 218.06 165.838 217.747 167.9 214.372C168.755 212.974 167.672 190.351 166.713 179.435C190.213 230.935 233.567 223.789 251.901 213.497Z" fill="#FF9E53"/>
<path d="M90.6511 269.122C96.2374 246.375 146.484 224.705 164.026 218.622C159.652 235.122 194.901 261.122 225.401 256.122C249.801 252.122 253.067 233.247 251.901 223.997C259.734 225.497 283.225 226.284 305.401 237.372C335.401 252.372 338.401 299.64 338.401 308.372C338.401 317.375 341.663 339.5 334 339.5H90.651C75.851 341.5 84.0678 309.289 84.6511 303.872C84.7345 303.039 84.4008 294.573 90.6511 269.122Z" fill="#FF770F"/>
<path d="M146.65 138.872C157.25 132.072 164.067 141.705 166.15 147.372C172.025 145.372 173.88 116.156 176.15 102.372C177.9 91.7471 181.068 90.1586 186.775 90.8721C238.775 97.3721 252.275 84.3721 254.65 84.3721C256.55 84.3721 261.192 89.2887 263.275 91.7471C271.275 100.447 273.234 128.039 273.213 140.747C275.913 133.447 279.463 137.455 280.9 140.372C285.1 155.372 276.984 168.455 272.4 173.122C268.6 214.522 236.817 222.872 221.4 221.872C186.8 220.472 170.15 191.622 166.15 177.372C146.9 180.122 133.4 147.372 146.65 138.872Z" fill="#FFB983"/>
<path d="M321.774 199.64C371.355 202.917 370.063 166.825 363.842 151.034C364.728 154.702 364.011 161.797 353.892 161.797C351.049 161.797 349.398 157.973 351.049 151.034C357.132 125.468 332.833 105.322 321.774 99.0508C323.54 107.89 323.083 120.784 314.904 129.51C304.35 140.77 299.942 151.136 296.776 156.632C285.025 184.057 305.414 198.11 321.774 199.64Z" fill="#FFB983"/>
<path d="M333.642 189.195C312.847 189.727 312.809 175.743 315.464 169.005C315.086 170.57 316.672 173.792 321.499 175.437C327.121 177.352 322.826 171.278 321.499 167.264C318.903 156.354 327.693 148.275 332.412 145.6C331.658 149.372 331.773 156.48 335.263 160.204C339.767 165.009 342.958 168.497 344.309 170.843C349.323 182.545 340.622 188.542 333.642 189.195Z" fill="#FFEFE3"/>
<path d="M237.151 131.312C236.962 130.262 237.358 129.285 237.833 128.573C238.291 127.886 239.059 127.506 239.85 127.267L259.776 121.246C260.359 121.001 262.351 121.148 265.651 123.701C268.951 126.255 267.942 127.384 267.026 127.63C262.026 127.63 245.776 134.995 241.901 135.977C238.801 136.763 237.942 135.65 237.901 134.995C237.776 134.463 237.451 132.982 237.151 131.312Z" fill="#FF770F"/>
<path d="M222.024 130.118C222.172 128.987 221.501 128.014 220.811 127.37C220.276 126.871 219.557 126.65 218.834 126.538L194.251 122.72C193.536 122.543 191.179 122.893 187.468 125.708C183.757 128.524 185.052 129.513 186.164 129.655C192.113 129.136 212.072 134.581 216.766 135.129C220.522 135.568 221.449 134.401 221.443 133.762C221.547 133.234 221.808 131.766 222.024 130.118Z" fill="#FF770F"/>
<ellipse cx="203.953" cy="144.938" rx="4.69727" ry="6.84375" fill="#FF770F"/>
<ellipse cx="251.91" cy="144.938" rx="4.25928" ry="6.84375" fill="#FF770F"/>
<path d="M235.588 142.435C236.88 147.351 242.152 158.417 243.776 161.622C246.151 166.31 238.401 175.247 224.901 170.372" stroke="#FF770F" stroke-width="4" stroke-linecap="round"/>
<path d="M213.026 188.122C220.401 186.205 237.276 183.522 245.776 188.122" stroke="#FF770F" stroke-width="4" stroke-linecap="round"/>
<path d="M301.184 305.29C301.703 306.475 300.975 322.634 300.546 330.566L305.482 331.358C305.79 327.866 304.394 310.527 303.56 307.836C302.726 305.144 300.535 303.809 301.184 305.29Z" fill="#FF9E53"/>
</g>
<defs>
<clipPath id="clip0_191_3466">
<rect width="450" height="330" fill="white" transform="translate(0.5)"/>
</clipPath>
</defs>
</svg>
