<svg width="451" height="330" viewBox="0 0 451 330" fill="none" xmlns="http://www.w3.org/2000/svg">
<g clip-path="url(#clip0_302_690)">
<rect width="450" height="330" transform="translate(0.5)" fill="white"/>
<circle cx="70.2837" cy="81.8198" r="19.5718" fill="#FFEFE3"/>
<path d="M209.203 53.2181C209.203 53.2181 236.888 107.351 336.933 83.4025C425.782 62.1346 451.126 170.19 409.254 208.868C364.453 250.251 300.426 265.731 311.735 314.231C323.044 362.731 183.441 383 162 311C119.862 237.347 98.2372 283.095 54.0001 243C29.6091 220.892 35.2848 145.607 91.3056 121.443C138.446 101.109 129.339 81.7625 128.448 65.941C127.162 43.1229 178.375 9.03083 209.203 53.2181Z" fill="#FFEFE3"/>
<circle cx="384.812" cy="270.772" r="14.1162" fill="#FFEFE3"/>
<path d="M121.278 143.394C121.278 162.715 98.513 175.684 92.3202 178.854C91.3407 179.356 90.2214 179.356 89.242 178.854C83.0492 175.684 60.2837 162.715 60.2837 143.394C60.2837 126.239 75.0607 114.803 90.7811 114.803C107.046 114.803 121.278 126.239 121.278 143.394Z" fill="#FFB983"/>
<path d="M76.6228 144.483L89.8009 157.661C90.2629 158.123 90.494 158.354 90.7811 158.354C91.0682 158.354 91.2992 158.123 91.7613 157.661L104.939 144.483C107.79 141.633 108.232 137.166 105.996 133.812C102.509 128.581 94.7354 128.848 91.6162 134.307L91.0783 135.248C90.9469 135.478 90.6153 135.478 90.4839 135.248L89.946 134.307C86.8268 128.848 79.0535 128.581 75.5661 133.812C73.3299 137.166 73.7722 141.633 76.6228 144.483Z" fill="#FFEFE3"/>
<path d="M110.74 222.013C119.972 236.677 119.384 251.204 117.935 256.635C102.295 276.186 88.5182 279.354 83.5852 278.495C58.8204 269.479 58.6032 251.114 61.5902 243.058C58.8747 234.586 61.7259 230.024 63.491 228.802C65.7991 209.115 89.0161 219.298 90.7811 218.891C92.1931 218.565 91.3694 213.596 90.7811 211.152C85.7575 194.723 106.531 182.64 105.988 198.389C105.553 210.989 108.975 219.388 110.74 222.013Z" fill="#FFB983"/>
<path d="M90.7811 220.521C94.3112 224.413 99.2533 232.659 92.4104 233.962" stroke="#FF770F" stroke-width="3.25852" stroke-linecap="round"/>
<path d="M74.4885 230.567C84.5356 230.658 102.295 233.772 92.9535 245.502" stroke="#FF770F" stroke-width="3.25852" stroke-linecap="round"/>
<path d="M73.6739 243.195C83.3589 242.38 100.855 243.765 93.3608 255.821" stroke="#FF770F" stroke-width="3.25852" stroke-linecap="round"/>
<path d="M74.149 255.143C80.4624 253.943 93.0621 253.052 92.9534 259.08C92.8448 265.108 84.264 265.574 79.9872 265.054" stroke="#FF770F" stroke-width="3.25852" stroke-linecap="round"/>
<path d="M177.947 136.341C179.467 108.752 197.407 91.5363 206.187 86.377L264.569 136.341C264.352 139.817 268.823 144.125 271.086 145.845C269.728 132.811 295.525 122.764 296.34 148.832C296.991 169.687 282.31 171.551 275.159 171.37C266.252 184.839 268.733 200.697 271.086 206.942C266.741 220.845 243.026 238.984 231.712 246.316C217.592 241.754 211.889 225.045 210.803 217.261V209.386C175.774 204.227 176.046 170.827 177.947 136.341Z" fill="#FFB983"/>
<path d="M177.743 138.423C162.319 91.7172 190.867 73.1617 207.07 69.7222C288.804 37.9516 319.489 115.613 313.786 150.167C309.224 177.81 324.919 206.354 333.337 217.17C318.719 220.248 285.559 223.127 273.937 210.744C262.315 198.362 270.113 179.29 274.955 171.212C290.705 170.261 296.95 159.196 296.339 150.167C295.729 141.138 292.198 130.752 282.355 132.652C274.48 134.173 271.652 141.975 271.222 145.686C269.484 145.632 264.478 139.735 262.193 136.793L244.271 132.177C237.32 130.657 230.332 114.527 227.707 106.652C225.1 109.259 226.621 124.755 227.707 132.177L195.665 134.078C191.103 130.602 191.411 114.346 192.135 106.652C186.487 109.693 180.187 129.1 177.743 138.423Z" fill="#FF770F"/>
<path d="M168.05 214.475C178.912 213.606 180.504 190.319 179.508 180C186.242 201.506 203.053 208.571 210.837 209.386V212.102L168.05 214.475Z" fill="#FF770F"/>
<path d="M200.62 220.248C203.119 219.596 208.45 213.46 210.803 210.473C210.26 230.458 223.973 242.605 230.898 246.181C250.449 235.21 265.927 215.089 271.222 206.399C272.625 211.016 286.57 222.496 316.705 234.911C360.695 253.034 359.79 324.159 360.695 361.451H166.27V335.383C158.45 349.286 152.198 348.867 145.5 349.5C108.136 357.538 85.3502 306.78 83.1779 277.815C94.4741 278.033 110.875 263.605 117.664 256.363L136.4 284.875C165.184 223.507 197.498 221.063 200.62 220.248Z" fill="#FF770F"/>
<ellipse cx="193.42" cy="146.758" rx="5.01916" ry="7.25749" fill="#FF770F"/>
<ellipse cx="230.519" cy="146.758" rx="5.01916" ry="7.25749" fill="#FF770F"/>
<path d="M200.082 161.293C203.515 158.381 206.248 152.836 207.736 148.996C208.078 148.113 209.13 148.095 209.149 149.041C209.23 153.214 205.775 159.265 203.295 162.419C203.159 162.592 203.07 162.8 203.08 163.02C203.207 165.837 207.675 167.812 211.678 168.961C212.791 169.28 212.778 170.709 211.621 170.68C204.956 170.513 200.815 165.472 199.731 162.404C199.588 162.001 199.756 161.57 200.082 161.293Z" fill="#FF770F"/>
<path d="M205.033 183.257C206.934 188.959 217.325 189.82 227.3 182.434" stroke="#FF770F" stroke-width="3.25852" stroke-linecap="round"/>
<path d="M227.3 128.806C230.671 127.539 239.166 126.525 246.172 132.608" stroke="#FF770F" stroke-width="4.3447" stroke-linecap="round"/>
<path d="M184.26 131.454C186.229 129.01 192.719 124.855 202.929 127.788" stroke="#FF770F" stroke-width="4.3447" stroke-linecap="round"/>
<path d="M248.863 199.95C237.518 206.033 218.486 208.897 210.26 209.531L211.007 217.745C236.381 223.515 263.044 192.347 248.863 199.95Z" fill="#FF9E53"/>
<path d="M303.529 296.416C303.529 304.019 303.044 334.342 305.382 348.552C307.618 349.005 311.785 349.639 310.565 348.552C309.345 347.466 307.086 313.342 303.529 296.416Z" fill="#FF9E53"/>
<path d="M167.775 299.595C166.398 300.403 158.881 336.943 155.294 355.111L160.138 355.377C163.257 336.446 169.152 298.787 167.775 299.595Z" fill="#FF9E53"/>
</g>
<defs>
<clipPath id="clip0_302_690">
<rect width="450" height="330" fill="white" transform="translate(0.5)"/>
</clipPath>
</defs>
</svg>
