<svg width="451" height="330" viewBox="0 0 451 330" fill="none" xmlns="http://www.w3.org/2000/svg">
<g clip-path="url(#clip0_274_3587)">
<rect width="450" height="330" transform="translate(0.733887)" fill="white"/>
<circle cx="70.5176" cy="81.8198" r="19.5718" fill="#FFEFE3"/>
<path d="M209.437 53.2181C209.437 53.2181 237.122 107.351 337.167 83.4025C426.016 62.1346 451.36 170.19 409.488 208.868C364.687 250.251 300.659 265.731 311.968 314.231C323.277 362.731 183.675 383 162.233 311C120.096 237.347 98.4711 283.095 54.234 243C29.8429 220.892 35.5186 145.607 91.5395 121.443C138.68 101.109 129.573 81.7625 128.682 65.941C127.396 43.1229 178.609 9.03083 209.437 53.2181Z" fill="#FFEFE3"/>
<circle cx="385.045" cy="270.772" r="14.1162" fill="#FFEFE3"/>
<rect x="298.701" y="105" width="79.5" height="112.5" rx="5" fill="#FF9E53"/>
<path d="M298.701 110C298.701 107.239 300.94 105 303.701 105H373.201C375.962 105 378.201 107.239 378.201 110V123.25H298.701V110Z" fill="#FF770F"/>
<path d="M89.7011 263.032C97.3011 235.491 136.701 218.702 155.451 213.75C169.034 230.177 206.798 260.686 212.359 255.125C217.92 249.565 219.097 232.162 222.264 221.001C276.464 215.719 314.451 291.329 326.201 330H93.2011C88.8678 319.153 82.1011 290.574 89.7011 263.032Z" fill="#FF770F"/>
<path d="M222.576 210.625C220.176 205.325 223.993 202.167 226.201 201.25C232.534 198.958 246.342 192.907 252.076 192.125C257.19 191.428 269.906 207.158 276.857 217.307C277.845 218.751 278.548 220.363 278.715 222.104C279.536 230.693 278.357 249.981 277.576 259.5L287.826 277.5C275.226 291 262.826 291.542 258.201 290.125C256.601 280.625 253.034 275 251.451 273.375C245.551 268.475 244.409 261.25 244.576 258.25C240.076 256.95 238.534 251.625 238.326 249.125C233.126 246.225 231.743 239.667 231.701 236.75C227.101 230.45 230.534 218.542 232.826 213.375C230.409 214.667 224.976 215.925 222.576 210.625Z" fill="#FFB983"/>
<path d="M232.482 213.844C237.982 210.844 251.514 206.625 263.201 214.375" stroke="#FF770F" stroke-width="3" stroke-linecap="round"/>
<path d="M230.201 236.25C230.722 229.083 239.701 216.662 262.701 224.562" stroke="#FF770F" stroke-width="3" stroke-linecap="round"/>
<path d="M236.951 249.312C236.451 242.75 241.389 229.575 259.639 235.875" stroke="#FF770F" stroke-width="3" stroke-linecap="round"/>
<path d="M244.264 259.5C246.451 259.229 251.951 257.188 251.076 252.125" stroke="#FF770F" stroke-width="3" stroke-linecap="round"/>
<path d="M247.292 248.5C248.313 249.375 251.317 251.475 255.167 252.875" stroke="#FF770F" stroke-width="3" stroke-linecap="round"/>
<path d="M145.076 129.5C156.276 124.3 163.993 133.75 166.451 139.125C179.051 123.925 181.868 99.5418 181.701 89.25C210.001 99.85 236.576 93.6667 246.326 89.25C254.326 93 255.029 102.911 258.951 123.5C262.951 144.5 262.951 166.25 258.076 188.875C254.176 206.975 232.201 213.667 222.201 213.75V222.875C217.901 239.275 217.234 254 211.734 258.75C177.834 241.85 158.076 222.375 154.951 213.75C163.826 208.75 163.201 185.208 161.826 172.875C132.451 168.5 131.076 136 145.076 129.5Z" fill="#FFB983"/>
<path d="M190.781 204.134C202.006 211.683 216.672 213.577 222.17 213.656V223.156C200.927 219.958 191.699 210.5 189.527 204.975C189.215 204.18 190.073 203.657 190.781 204.134Z" fill="#FF9E53"/>
<path d="M197.826 128.416C201.701 125.708 212.026 121.592 225.826 127.292" stroke="#FF770F" stroke-width="6" stroke-linecap="round"/>
<path d="M255.576 124.374C253.534 125.291 248.151 126.949 242.951 126.249" stroke="#FF770F" stroke-width="6" stroke-linecap="round"/>
<ellipse cx="216.211" cy="141" rx="4.38531" ry="7.54688" fill="#FF770F"/>
<ellipse cx="251.191" cy="141" rx="4.38531" ry="7.54688" fill="#FF770F"/>
<path d="M239.951 137C240.732 141.358 243.745 153.06 250.19 163.818C250.353 164.09 250.386 164.424 250.237 164.703C248.779 167.425 243.609 171.639 236.576 168.625" stroke="#FF770F" stroke-width="4" stroke-linecap="round"/>
<path d="M216.076 185.875C220.284 184.125 231.151 181.45 240.951 184.75" stroke="#FF770F" stroke-width="4" stroke-linecap="round"/>
<path d="M125.701 121.5C119.701 135.5 131.701 140.334 138.451 141C140.743 132.542 149.114 120.381 166.514 139.281C170.514 135.031 179.201 124.775 179.701 117.875C186.784 120.125 205.201 126.3 207.201 115C212.113 118.72 224.69 121.929 241.701 113C243.483 114.782 247.129 118.19 254.902 116.934C256.939 116.605 258.824 115.652 260.413 114.334C264.978 110.55 270.806 104.079 267.201 95.2501C273.984 80.5006 262.401 72.0006 259.484 69.5006C251.234 44.5006 228.901 51.3334 216.734 54.5001C201.734 45.1001 188.118 49.4168 182.701 54.5002C165.901 47.5002 153.201 59.2502 148.951 66.0002C137.951 66.0002 135.201 80.1668 135.201 87.2502C120.801 91.0502 122.868 111.667 125.701 121.5Z" fill="#FF770F"/>
<path d="M232.014 214.063C229.368 215.271 224.389 215.763 221.889 210.063C221.222 208.25 221.031 203.735 226.201 201.438C233.455 198.213 247.607 190.344 254.951 193.875" stroke="#FF770F" stroke-width="3" stroke-linecap="round"/>
<mask id="path-23-inside-1_274_3587" fill="white">
<rect x="306.951" y="133.75" width="27.5" height="27.5" rx="4"/>
</mask>
<rect x="306.951" y="133.75" width="27.5" height="27.5" rx="4" stroke="#FFEFE3" stroke-width="10" mask="url(#path-23-inside-1_274_3587)"/>
<path d="M347.951 140.375H368.701" stroke="#FFEFE3" stroke-width="5" stroke-linecap="round"/>
<path d="M347.951 154.625H368.701" stroke="#FFEFE3" stroke-width="5" stroke-linecap="round"/>
<path d="M308.734 178.417L368.701 178.417" stroke="#FFEFE3" stroke-width="5" stroke-linecap="round"/>
<path d="M308.734 197.917L368.701 197.917" stroke="#FFEFE3" stroke-width="5" stroke-linecap="round"/>
<path d="M151.451 296.375C148.851 299.575 154.201 319.875 157.201 329.625H162.951C158.951 326.225 153.618 306.042 151.451 296.375Z" fill="#FF9E53"/>
<path d="M262.826 311.5C261.526 310.8 262.868 323.542 263.701 330H268.326C267.034 324.125 264.126 312.2 262.826 311.5Z" fill="#FF9E53"/>
</g>
<defs>
<clipPath id="clip0_274_3587">
<rect width="450" height="330" fill="white" transform="translate(0.733887)"/>
</clipPath>
</defs>
</svg>
