<svg width="31" height="30" viewBox="0 0 31 30" fill="none" xmlns="http://www.w3.org/2000/svg">
<g clip-path="url(#clip0_360_614)">
<path d="M26.4973 11.7246C26.2888 5.9368 21.5413 1.2568 15.7513 1.1278C9.55934 0.989801 4.49609 5.9683 4.49609 12.1296C4.49609 13.9948 4.96184 15.7513 5.78084 17.2903L5.77634 17.2873C5.78834 17.3091 5.79959 17.3286 5.81159 17.3496C5.84234 17.4066 5.87534 17.4621 5.90759 17.5191C5.94059 17.5776 5.97434 17.6361 6.00734 17.6923C6.06059 17.7838 6.11534 17.8738 6.17159 17.9631C6.20384 18.0141 6.23534 18.0628 6.26759 18.1123C6.30884 18.1761 6.34934 18.2406 6.39134 18.3036C7.94984 20.6241 9.27509 20.7906 9.74459 22.5613H14.5071V17.2648L11.9653 14.7231C11.5543 14.3121 11.5543 13.6461 11.9653 13.2351C12.3763 12.8241 13.0423 12.8241 13.4533 13.2351L15.5166 15.2983L17.5468 13.2681C17.9578 12.8571 18.6238 12.8571 19.0348 13.2681C19.4458 13.6791 19.4458 14.3451 19.0348 14.7561L16.4931 17.2978V22.5606H21.2556C21.7266 20.7831 23.0593 20.6218 24.6246 18.2811C24.6261 18.2796 24.6268 18.2773 24.6283 18.2758C24.7033 18.1641 24.7783 18.0463 24.8541 17.9241C24.8931 17.8611 24.9313 17.7981 24.9688 17.7343C25.0543 17.5911 25.1398 17.4441 25.2253 17.2866L25.2186 17.2903C26.0968 15.6396 26.5693 13.7398 26.4966 11.7238L26.4973 11.7246Z" fill="#FFC33A"/>
<path d="M16.4932 22.5615V17.2987L19.035 14.757C19.446 14.346 19.446 13.68 19.035 13.269C18.624 12.858 17.958 12.858 17.547 13.269L15.5167 15.2992L13.4535 13.236C13.0425 12.825 12.3765 12.825 11.9655 13.236C11.5545 13.647 11.5545 14.313 11.9655 14.724L14.5072 17.2657V22.5622H16.494L16.4932 22.5615Z" fill="#FF9000"/>
<path d="M9.76562 22.5613C9.77088 22.6798 9.77462 22.8028 9.77612 22.9318V25.091C9.77612 27.1798 11.6196 28.8733 13.7091 28.8733H17.2911C19.3799 28.8733 21.2466 27.1798 21.2466 25.091V23.015C21.2466 22.8545 21.2511 22.7053 21.2579 22.5605H9.76637L9.76562 22.5613Z" fill="#7D8996"/>
<path d="M21.3857 22.7305H9.6377V24.9805H21.3857V22.7305Z" fill="#4B596A"/>
</g>
<defs>
<clipPath id="clip0_360_614">
<rect width="30" height="30" fill="white" transform="translate(0.5)"/>
</clipPath>
</defs>
</svg>
