<svg width="331" height="330" viewBox="0 0 331 330" fill="none" xmlns="http://www.w3.org/2000/svg">
<rect width="330" height="330" transform="translate(0.5)" fill="white"/>
<ellipse cx="161.608" cy="280.011" rx="60.6196" ry="10.75" fill="#FFEFE3"/>
<rect x="84.5703" y="97.4912" width="156" height="110" rx="30" fill="#FF9E53"/>
<rect x="89.2852" y="118.109" width="155.965" height="69.5" fill="#FF9E53"/>
<path d="M114.453 250.141C96.2736 248.802 110.153 219.866 118.069 206.616C144.486 205.783 197.195 204.866 196.695 207.866C196.07 211.616 205.695 219.366 213.445 216.241C218.065 214.378 220.073 214.829 222.866 215.525C224.923 216.037 226.807 217.299 227.621 219.255C232.087 229.982 225.171 235.09 220.391 236.734C201.578 238.172 198.653 235.491 196.695 233.366C196.736 241.324 196.795 258.991 196.695 265.991C196.57 274.741 191.704 279.991 185.329 279.991C178.954 279.991 171.445 279.047 171.445 267.116C171.445 254.968 170.561 250.491 162.07 250.491C153.579 250.491 153.32 255.491 152.32 267.866C151.52 277.766 143.153 280.074 139.07 279.991C131.141 280.39 125.714 274.734 125.714 267.116C125.714 260.109 125.714 250.859 125.945 244.366C122.645 247.666 117.168 250.341 114.453 250.141Z" fill="#FF9E53"/>
<path d="M180.781 176.234C179.563 171.171 173.842 167.109 165.281 167.109C156.721 167.109 151.063 171.449 149.781 176.234" stroke="white" stroke-width="5" stroke-linecap="round"/>
<ellipse cx="145.281" cy="145.3" rx="5.75" ry="7.19092" fill="white"/>
<path d="M184.531 138.609C187.332 138.609 189.781 141.495 189.781 145.301C189.781 149.106 187.332 151.991 184.531 151.991C181.73 151.991 179.281 149.106 179.281 145.301C179.281 141.495 181.73 138.609 184.531 138.609Z" fill="white" stroke="white"/>
<path d="M259.809 40.3342C261.8 37.9385 265.672 39.7899 265.057 42.844L260.974 63.1135H271.385C273.926 63.1135 275.317 66.0767 273.692 68.0315L250.123 96.3957C248.132 98.7916 244.26 96.9401 244.875 93.886L248.958 73.6164H238.547C236.005 73.6164 234.615 70.6532 236.239 68.6985L259.809 40.3342Z" fill="#FFB983"/>
<mask id="mask0_231_1011" style="mask-type:alpha" maskUnits="userSpaceOnUse" x="105" y="205" width="125" height="76">
<path d="M114.453 250.141C96.2736 248.802 110.153 219.866 118.069 206.616C144.486 205.783 197.195 204.866 196.695 207.866C196.07 211.616 205.695 219.366 213.445 216.241C218.065 214.378 220.073 214.829 222.866 215.525C224.923 216.037 226.807 217.299 227.621 219.255C232.087 229.982 225.171 235.09 220.391 236.734C201.578 238.172 198.653 235.491 196.695 233.366C196.736 241.324 196.795 258.991 196.695 265.991C196.57 274.741 191.704 279.991 185.329 279.991C178.954 279.991 171.445 279.047 171.445 267.116C171.445 254.968 170.561 250.491 162.07 250.491C153.579 250.491 153.32 255.491 152.32 267.866C151.52 277.766 143.153 280.074 139.07 279.991C131.141 280.39 125.714 274.734 125.714 267.116C125.714 260.109 125.714 250.859 125.945 244.366C122.645 247.666 117.168 250.341 114.453 250.141Z" fill="#FF9E53"/>
</mask>
<g mask="url(#mask0_231_1011)">
<path d="M132.328 222.484C128.578 236.484 122.378 269.222 130.078 279.422" stroke="#FF770F" stroke-width="4" stroke-linecap="round"/>
<path d="M193.875 225.109C195.167 237.501 197.253 261.974 195.953 274.734" stroke="#FF770F" stroke-width="4" stroke-linecap="round"/>
</g>
<rect x="218.988" y="186.358" width="10.8616" height="15.3078" transform="rotate(15 218.988 186.358)" fill="#FFEFE3"/>
<path d="M274.391 150.866C274.391 172.958 256.482 190.866 234.391 190.866C212.299 190.866 194.391 172.958 194.391 150.866C194.391 128.775 212.299 110.866 234.391 110.866C256.482 110.866 274.391 128.775 274.391 150.866ZM204.783 150.866C204.783 167.218 218.039 180.474 234.391 180.474C250.743 180.474 263.999 167.218 263.999 150.866C263.999 134.514 250.743 121.258 234.391 121.258C218.039 121.258 204.783 134.514 204.783 150.866Z" fill="#FF770F"/>
<path d="M222.841 200.691C227.109 201.834 229.641 206.221 228.498 210.489L220.696 239.605C219.157 245.349 213.585 248.847 208.25 247.418C202.916 245.988 199.839 240.173 201.378 234.429L209.179 205.312C210.323 201.045 214.71 198.512 218.977 199.656L222.841 200.691Z" fill="#FF770F"/>
<circle opacity="0.8" cx="234.391" cy="150.866" r="30" fill="white"/>
<ellipse cx="223.537" cy="225.564" rx="5.73216" ry="8.91092" transform="rotate(8.83641 223.537 225.564)" fill="#FF9E53"/>
<path d="M64.8817 101.51L52.1991 104.909L50.7859 99.6345C49.4906 94.8001 49.4533 91.6473 52.4141 88.6333C54.7392 86.2607 56.6462 84.3365 57.6451 82.7903C59.1663 80.4312 59.2985 78.9154 58.7265 76.7807C57.9526 73.8925 55.1417 72.6942 52.3164 73.4513C49.4282 74.2251 47.241 76.359 47.1773 79.135C47.1058 82.3842 44.9231 84.786 41.4026 85.4602C38.464 86.0457 35.3683 84.7891 34.4508 80.8628C32.6496 73.1357 39.293 65.03 49.3387 62.3383C59.761 59.5456 68.6579 62.6125 71.5347 73.3487C72.6618 77.5553 72.5276 80.8214 70.9739 84.064C69.6791 86.7662 67.2543 89.7711 64.7161 92.6046C63.2778 94.2686 63.3003 95.6084 63.7377 97.2408L64.8817 101.51ZM54.43 114.741C53.387 110.848 55.2423 107.727 59.4489 106.6C63.6555 105.473 66.8398 107.311 67.866 111.141C68.8922 114.971 67.0538 118.155 62.8472 119.282C58.6405 120.41 55.473 118.634 54.43 114.741Z" fill="#FFB983"/>
<path d="M73.0983 216.826C74.8101 215.114 77.5857 215.114 79.2975 216.826C81.0091 218.538 81.0093 221.313 79.2975 223.025L73.0973 229.223L79.2966 235.423C81.0084 237.134 81.0084 239.91 79.2966 241.622C77.5847 243.334 74.8092 243.334 73.0973 241.622L66.8981 235.423L60.6999 241.622C58.9881 243.334 56.2125 243.334 54.5007 241.622C52.7891 239.91 52.7889 237.134 54.5007 235.423L60.6989 229.223L54.5007 223.024C52.7888 221.312 52.7888 218.538 54.5007 216.826C56.2125 215.114 58.9871 215.114 60.6989 216.826L66.8981 223.025L73.0983 216.826Z" fill="#FFEFE3"/>
<path d="M292.572 105.676C293.764 104.484 295.697 104.484 296.889 105.676C298.081 106.868 298.081 108.8 296.889 109.992L292.572 114.309L296.888 118.624C298.08 119.816 298.08 121.749 296.888 122.941C295.696 124.133 293.763 124.133 292.571 122.941L288.256 118.625L283.94 122.942C282.748 124.133 280.815 124.133 279.623 122.942C278.431 121.75 278.431 119.817 279.623 118.625L283.94 114.309L279.622 109.991C278.431 108.799 278.43 106.867 279.622 105.675C280.814 104.483 282.747 104.483 283.939 105.675L288.256 109.992L292.572 105.676Z" fill="#FFEFE3"/>
<circle cx="261.965" cy="212.799" r="6.99805" fill="#FFEFE3"/>
<path d="M165.5 41.0166C174.627 41.0166 182.337 47.0768 184.83 55.3926H189.576C196.843 55.3928 202.734 61.2846 202.734 68.5518C202.734 75.8187 196.843 81.7097 189.576 81.71H141.424C134.157 81.7097 128.266 75.8187 128.266 68.5518C128.266 61.2846 134.157 55.3928 141.424 55.3926H146.17C148.663 47.0768 156.373 41.0166 165.5 41.0166Z" fill="#FFEFE3"/>
</svg>
