<svg width="34" height="35" viewBox="0 0 34 35" fill="none" xmlns="http://www.w3.org/2000/svg">
<path fill-rule="evenodd" clip-rule="evenodd" d="M32.0905 17.594C32.0905 16.4595 31.9887 15.3686 31.7996 14.3213H16.7305V20.5104H25.3414C24.9705 22.5104 23.8432 24.2049 22.1487 25.3395V29.354H27.3196C30.345 26.5686 32.0905 22.4667 32.0905 17.594Z" fill="#4285F4"/>
<path fill-rule="evenodd" clip-rule="evenodd" d="M16.7298 33.2305C21.0498 33.2305 24.6716 31.7978 27.3189 29.3541L22.148 25.3396C20.7153 26.2996 18.8826 26.8669 16.7298 26.8669C12.5626 26.8669 9.03528 24.0523 7.77709 20.2705H2.43164V24.416C5.06437 29.6451 10.4753 33.2305 16.7298 33.2305Z" fill="#34A853"/>
<path fill-rule="evenodd" clip-rule="evenodd" d="M7.77774 20.2704C7.45774 19.3104 7.27592 18.2849 7.27592 17.2304C7.27592 16.1758 7.45774 15.1504 7.77774 14.1904V10.0449H2.43229C1.34865 12.2049 0.730469 14.6486 0.730469 17.2304C0.730469 19.8122 1.34865 22.2558 2.43229 24.4158L7.77774 20.2704Z" fill="#FBBC05"/>
<path fill-rule="evenodd" clip-rule="evenodd" d="M16.7299 7.59411C19.079 7.59411 21.1881 8.40138 22.8462 9.98683L27.4353 5.39774C24.6644 2.81592 21.0426 1.23047 16.7299 1.23047C10.4753 1.23047 5.06443 4.81592 2.4317 10.045L7.77716 14.1905C9.03534 10.4087 12.5626 7.59411 16.7299 7.59411Z" fill="#EA4335"/>
</svg>
