<svg width="420" height="421" viewBox="0 0 420 421" fill="none" xmlns="http://www.w3.org/2000/svg">
<path d="M228.993 80.883C228.993 80.883 200.87 144.005 126.496 129.545C52.1222 115.085 7.31216 216.818 77.6263 253.912C147.94 291.006 99.2109 333.619 146.106 355.385C199.405 380.123 219.28 297.402 258.546 305.085C345.207 322.042 398.814 292.961 375.111 253.826C333.502 185.129 303.291 187.658 315.568 143.296C327.845 98.9337 258.51 30.8301 228.993 80.883Z" fill="#FFEFE3"/>
<path d="M215.418 224.95C208.883 237.474 207.234 244.13 187.411 256.558C187.257 256.658 187.142 256.808 187.084 256.982C183.917 266.8 178.556 275.768 171.408 283.206C171.311 283.305 171.244 283.429 171.212 283.563C171.18 283.698 171.185 283.838 171.226 283.97C173.444 291.354 175.846 304.666 169.165 315.578C159.344 331.643 152.071 321.943 153.585 318.305C154.883 315.189 165.964 308.497 163.406 291.778C163.384 291.644 163.329 291.518 163.244 291.412C163.16 291.306 163.05 291.224 162.925 291.172C162.799 291.121 162.663 291.103 162.528 291.12C162.394 291.137 162.266 291.188 162.157 291.269C154.125 297.098 144.906 301.085 135.157 302.945C135.049 302.963 134.945 303.003 134.854 303.064C134.763 303.124 134.685 303.204 134.627 303.297C134.568 303.39 134.53 303.494 134.515 303.602C134.5 303.711 134.508 303.822 134.538 303.927C137.024 312.826 138.2 326.733 127.822 339.523C122.281 346.191 114.934 336.444 122.281 329.8C126.84 325.69 126.488 313.869 124.354 304.764C124.314 304.587 124.213 304.43 124.069 304.32C123.925 304.209 123.747 304.152 123.566 304.158C123.142 304.17 122.705 304.17 122.281 304.17C107.285 304.192 92.7054 299.237 80.829 290.081C80.7204 289.996 80.5915 289.941 80.4551 289.921C80.3187 289.901 80.1794 289.916 80.0509 289.967C79.9225 290.017 79.8093 290.099 79.7226 290.207C79.6358 290.314 79.5784 290.442 79.556 290.578C76.7067 309.394 88.019 315.905 89.631 320.73C91.4254 326.125 87.3031 330.926 82.2232 329.569C82.1131 329.536 82.0102 329.482 81.9202 329.411C65.3587 316.972 66.8014 290.905 68.62 278.357C68.6367 278.254 68.6312 278.149 68.604 278.049C68.5768 277.948 68.5285 277.855 68.4623 277.775C59.2008 265.857 54.1868 251.186 54.2166 236.092C54.2166 208.413 70.7417 184.589 94.4685 173.956C94.4701 173.956 94.4717 173.956 94.4732 173.956C94.4747 173.955 94.476 173.954 94.4772 173.953C94.4783 173.952 94.4792 173.951 94.4798 173.949C94.4804 173.948 94.4807 173.946 94.4807 173.944C98.1299 169.324 102.58 162.79 103.259 158.207C103.281 158.052 103.349 157.907 103.454 157.791C103.56 157.675 103.697 157.592 103.85 157.554C104.002 157.517 104.162 157.525 104.309 157.579C104.457 157.633 104.585 157.729 104.677 157.856C106.423 160.208 109.127 164.694 108.533 169.422C108.508 169.58 108.496 169.737 108.472 169.895C108.423 170.162 108.363 170.416 108.302 170.683C108.242 170.889 108.193 171.095 108.12 171.301C108.968 170.594 109.777 169.841 110.544 169.046C112.326 167.216 114.581 164.463 115.551 161.517C115.597 161.36 115.691 161.221 115.819 161.119C115.947 161.017 116.104 160.958 116.267 160.948C116.431 160.939 116.593 160.981 116.732 161.068C116.871 161.155 116.979 161.282 117.042 161.433C117.672 162.985 118.412 165.155 118.667 167.374C118.689 167.573 118.784 167.757 118.934 167.889C119.085 168.021 119.279 168.093 119.479 168.089C120.413 168.053 121.346 168.029 122.28 168.029C159.876 168.029 190.356 198.509 190.356 236.093C190.356 236.954 190.344 237.803 190.308 238.651C190.302 238.781 190.329 238.91 190.384 239.027C190.44 239.144 190.523 239.246 190.627 239.323C190.731 239.401 190.852 239.452 190.981 239.472C191.109 239.492 191.24 239.481 191.363 239.439C195.412 238.021 200.516 234.602 203.596 226.467C209.355 211.311 209.961 207.068 208.142 195.247C206.324 183.426 215.114 184.033 216.932 187.973C218.75 191.912 222.692 211.008 215.418 224.95Z" fill="#FF770F"/>
<path d="M95.6913 242.063C95.4595 242.063 95.2342 241.986 95.0507 241.844C94.8672 241.703 94.7357 241.504 94.6768 241.28C94.2197 239.283 94.1215 237.221 94.3868 235.19C94.9838 230.775 97.3862 227.53 101.334 225.806C103.915 224.679 106.353 224.614 108.583 225.613C113.153 227.662 115.099 233.47 115.18 233.716C115.258 233.978 115.231 234.26 115.104 234.503C114.977 234.745 114.76 234.928 114.5 235.014C114.24 235.099 113.957 235.079 113.712 234.959C113.466 234.838 113.277 234.627 113.185 234.369C113.168 234.319 111.438 229.188 107.718 227.526C106.053 226.783 104.188 226.851 102.176 227.73C98.9087 229.158 96.9914 231.741 96.4774 235.409C96.2425 237.189 96.3211 238.996 96.7096 240.749C96.7795 241.019 96.7396 241.305 96.5987 241.545C96.4577 241.785 96.2273 241.96 95.9578 242.03C95.8707 242.052 95.7812 242.064 95.6913 242.063Z" fill="white"/>
<path d="M127.344 232.447C127.124 232.447 126.909 232.378 126.731 232.249C126.552 232.121 126.419 231.939 126.349 231.731C125.763 229.777 125.531 227.733 125.664 225.697C125.974 221.271 128.161 217.891 131.99 215.92C134.496 214.631 136.93 214.408 139.223 215.263C143.906 217.006 146.221 222.639 146.317 222.877C146.418 223.135 146.413 223.422 146.303 223.676C146.194 223.93 145.988 224.131 145.732 224.234C145.475 224.338 145.188 224.336 144.933 224.229C144.677 224.121 144.475 223.918 144.369 223.662C144.348 223.613 142.294 218.642 138.483 217.228C136.768 216.593 134.907 216.781 132.951 217.788C129.784 219.418 128.039 222.106 127.764 225.781C127.645 227.563 127.841 229.352 128.341 231.066C128.393 231.224 128.407 231.392 128.382 231.556C128.357 231.721 128.293 231.877 128.195 232.011C128.098 232.146 127.97 232.256 127.822 232.332C127.674 232.408 127.511 232.447 127.344 232.447H127.344Z" fill="white"/>
<path d="M124.672 254.414C117.525 254.414 112.076 249.658 111.804 249.416C111.7 249.325 111.616 249.214 111.556 249.089C111.496 248.965 111.461 248.831 111.453 248.693C111.444 248.555 111.463 248.418 111.509 248.287C111.554 248.157 111.624 248.037 111.716 247.934C111.807 247.831 111.918 247.746 112.042 247.686C112.166 247.626 112.301 247.591 112.439 247.583C112.576 247.575 112.714 247.594 112.844 247.639C112.975 247.684 113.095 247.754 113.198 247.846C113.27 247.909 120.465 254.163 128.567 251.748C136.631 249.345 138.843 239.106 138.864 239.003C138.923 238.733 139.086 238.497 139.318 238.347C139.55 238.196 139.831 238.143 140.102 238.198C140.373 238.254 140.611 238.414 140.764 238.644C140.917 238.874 140.974 239.155 140.921 239.427C140.422 241.547 139.64 243.592 138.596 245.504C136.291 249.754 133.031 252.61 129.167 253.761C127.708 254.196 126.194 254.416 124.672 254.414Z" fill="white"/>
<path d="M351.015 207.679C350.925 209.959 350.693 212.231 350.321 214.482C345.259 245.448 316.066 266.437 285.1 261.375C254.146 256.315 233.145 227.12 238.207 196.154C238.53 194.18 238.957 192.248 239.461 190.364C216.495 174.767 217.836 144.692 222.239 141.357C226.685 137.981 231.539 140.826 231.032 150.166C230.51 163.729 238.861 174.946 243.492 179.831C254.336 158.213 278.301 145.153 303.428 149.26C327.813 153.246 346.004 172.203 350.17 195.193C354.715 193.541 362.743 188.772 369.246 175.216C370.155 172.514 370.406 170.528 370.454 169.332C370.486 168.215 370.923 167.147 371.682 166.327C373.104 164.839 375.623 163.261 378.875 165.685C379.615 166.238 380.211 166.96 380.614 167.791C381.017 168.622 381.215 169.538 381.191 170.461C380.987 177.787 375.124 195.613 351.015 207.679Z" fill="#FFB983"/>
<path d="M317.234 217.722C315.8 226.493 303.738 231.818 290.301 229.622C276.852 227.423 267.113 218.534 268.547 209.764C268.82 208.13 269.458 206.58 270.414 205.228C270.675 204.862 271.067 204.61 271.508 204.524C271.95 204.438 272.408 204.524 272.787 204.766C277.601 207.78 285.221 210.438 294.013 211.875C302.104 213.198 309.592 213.218 315.041 212.184C315.485 212.099 315.944 212.188 316.324 212.432C316.704 212.676 316.976 213.058 317.082 213.497C317.41 214.882 317.462 216.317 317.234 217.722Z" fill="white"/>
<path d="M291.737 200.32C291.584 200.32 291.434 200.287 291.295 200.224C291.157 200.16 291.034 200.067 290.936 199.951C290.837 199.834 290.765 199.698 290.724 199.552C290.683 199.405 290.674 199.251 290.699 199.101C291.051 196.945 290.533 194.737 289.258 192.963C287.982 191.189 286.055 189.995 283.899 189.643C281.743 189.29 279.535 189.809 277.761 191.084C275.988 192.359 274.793 194.287 274.441 196.443C274.396 196.718 274.243 196.964 274.017 197.126C273.791 197.289 273.51 197.355 273.235 197.31C272.96 197.265 272.714 197.113 272.552 196.886C272.389 196.66 272.323 196.379 272.368 196.104C272.81 193.398 274.309 190.979 276.535 189.379C278.761 187.778 281.532 187.128 284.237 187.57C286.943 188.012 289.362 189.511 290.963 191.737C292.563 193.963 293.214 196.734 292.772 199.439C292.731 199.685 292.605 199.908 292.416 200.07C292.226 200.231 291.986 200.32 291.737 200.32Z" fill="white"/>
<path d="M316.924 204.437C316.772 204.437 316.622 204.403 316.484 204.339C316.345 204.275 316.223 204.182 316.124 204.066C316.026 203.95 315.953 203.814 315.912 203.668C315.871 203.521 315.863 203.367 315.887 203.217C316.231 201.065 315.707 198.864 314.432 197.097C313.156 195.33 311.233 194.141 309.082 193.789C306.931 193.437 304.729 193.953 302.957 195.222C301.185 196.491 299.988 198.41 299.629 200.559C299.607 200.696 299.558 200.827 299.486 200.944C299.413 201.062 299.318 201.164 299.206 201.245C299.094 201.326 298.967 201.384 298.833 201.415C298.698 201.447 298.559 201.452 298.423 201.43C298.286 201.407 298.156 201.358 298.038 201.286C297.921 201.213 297.819 201.117 297.738 201.005C297.658 200.893 297.6 200.766 297.569 200.631C297.538 200.496 297.534 200.357 297.556 200.221C298.006 197.522 299.507 195.112 301.731 193.518C303.955 191.924 306.72 191.277 309.42 191.718C312.12 192.16 314.536 193.654 316.136 195.873C317.737 198.091 318.392 200.854 317.96 203.556C317.919 203.802 317.793 204.025 317.604 204.186C317.414 204.348 317.173 204.436 316.924 204.437Z" fill="white"/>
</svg>
