<svg width="205" height="98" viewBox="0 0 205 98" fill="none" xmlns="http://www.w3.org/2000/svg">
<path d="M0.240234 97.54V25.2148H52.7231V38.41H13.1377L15.7172 35.8305V59.1452L13.1377 56.5657H48.7546V69.1655H13.1377L15.7172 66.586V97.54H0.240234Z" fill="#FF770F"/>
<path d="M61.4351 97.54V44.3627H76.0192V97.54H61.4351ZM61.4351 37.5171V25.2148H76.0192V37.5171H61.4351Z" fill="#FF770F"/>
<path d="M106.124 97.54C102.552 97.54 99.7741 97.0109 97.7899 95.9526C95.8056 94.8943 94.4167 93.4062 93.623 91.4881C92.8954 89.5039 92.5317 87.1889 92.5317 84.5433V56.0696H83.0074V44.3627H92.5317V29.8778H107.017V44.3627H117.731V56.0696H107.017V81.7654C107.017 83.3527 107.38 84.411 108.108 84.9401C108.835 85.4693 109.894 85.7338 111.283 85.7338H117.731V97.54H106.124Z" fill="#FF770F"/>
<path d="M126.736 97.54V44.3627H141.32V97.54H126.736Z" fill="#FF770F"/>
<path d="M153.864 97.54V44.3627H167.853L168.449 53.9862H169.044C170.499 50.4146 172.748 47.7689 175.79 46.0492C178.833 44.2634 182.239 43.3705 186.009 43.3705C188.655 43.3705 191.102 43.8005 193.351 44.6603C195.666 45.454 197.65 46.7107 199.303 48.4303C201.023 50.15 202.346 52.4319 203.272 55.2759C204.264 58.0538 204.76 61.427 204.76 65.3955V97.54H190.176V68.5702C190.176 65.5939 189.812 63.1136 189.085 61.1294C188.423 59.1452 187.365 57.6901 185.91 56.7641C184.455 55.772 182.537 55.2759 180.156 55.2759C177.642 55.2759 175.526 55.8712 173.806 57.0617C172.086 58.2523 170.763 59.8066 169.838 61.7247C168.912 63.6427 168.449 65.7262 168.449 67.975V97.54H153.864Z" fill="#FF770F"/>
<path d="M136.174 36.9143C134.881 38.4649 132.537 38.5713 131.109 37.144L115.352 21.3867L122.251 14.4879L133.11 25.3473L154.087 0.17578L161.582 6.42424L136.174 36.9143Z" fill="#FF770F"/>
</svg>
