<svg width="65" height="32" viewBox="0 0 65 32" fill="none" xmlns="http://www.w3.org/2000/svg">
<path d="M0.5 31.2351V8.60254H16.9234V12.7317H4.53599L5.34319 11.9245V19.2203L4.53599 18.4131H15.6815V22.3559H4.53599L5.34319 21.5487V31.2351H0.5Z" fill="#FF770F"/>
<path d="M19.6496 31.2351V14.5944H24.2134V31.2351H19.6496ZM19.6496 12.4523V8.60254H24.2134V12.4523H19.6496Z" fill="#FF770F"/>
<path d="M33.6339 31.2351C32.5163 31.2351 31.647 31.0695 31.026 30.7384C30.4051 30.4072 29.9705 29.9415 29.7221 29.3413C29.4944 28.7204 29.3806 27.996 29.3806 27.1681V18.2579H26.4002V14.5944H29.3806V10.0617H33.9133V14.5944H37.2663V18.2579H33.9133V26.2988C33.9133 26.7955 34.0272 27.1267 34.2548 27.2923C34.4825 27.4578 34.8137 27.5406 35.2483 27.5406H37.2663V31.2351H33.6339Z" fill="#FF770F"/>
<path d="M40.0842 31.2351V14.5944H44.648V31.2351H40.0842Z" fill="#FF770F"/>
<path d="M48.5734 31.2351V14.5944H52.9509L53.1371 17.6059H53.3234C53.7788 16.4882 54.4825 15.6603 55.4345 15.1222C56.3866 14.5634 57.4525 14.284 58.6323 14.284C59.4602 14.284 60.226 14.4185 60.9297 14.6876C61.6541 14.9359 62.275 15.3292 62.7925 15.8673C63.3306 16.4054 63.7445 17.1195 64.0343 18.0095C64.3448 18.8788 64.5 19.9344 64.5 21.1762V31.2351H59.9362V22.1697C59.9362 21.2383 59.8224 20.4621 59.5947 19.8412C59.3877 19.2203 59.0566 18.7649 58.6012 18.4752C58.1459 18.1647 57.5457 18.0095 56.8006 18.0095C56.0141 18.0095 55.3518 18.1958 54.8136 18.5683C54.2755 18.9409 53.8615 19.4273 53.5718 20.0275C53.282 20.6277 53.1371 21.2797 53.1371 21.9834V31.2351H48.5734Z" fill="#FF770F"/>
<path d="M43.0373 12.2621C42.6329 12.7474 41.8992 12.7807 41.4525 12.334L36.5216 7.40312L38.6805 5.24429L42.0787 8.6425L48.6427 0.765624L50.9883 2.72095L43.0373 12.2621Z" fill="#FF770F"/>
</svg>
