<svg width="330" height="331" viewBox="0 0 330 331" fill="none" xmlns="http://www.w3.org/2000/svg">
<path d="M213.331 85.8476C213.331 85.8476 196.85 127.903 260.867 166.645C317.72 201.051 259.677 258.692 226.787 268.283C184.181 280.708 136.691 243.28 115.107 274.068C93.5235 304.855 27.9214 249.78 57.6132 201.697C94.5481 141.884 50.5314 140.96 43.162 114.907C37.8729 96.2085 73.476 44.6757 115.375 60.8237C150.633 74.4117 156.921 59.7834 165.376 51.1688C177.569 38.7441 222.627 47.3162 213.331 85.8476Z" fill="#FFEFE3"/>
<path d="M141.397 224.747C130.751 224.263 118.654 211.521 123.977 208.134C129.3 204.747 128.655 197.65 126.719 196.683C114.784 192.005 111.88 181.521 109.3 168.134C106.719 154.747 108.17 112.166 108.17 112.166L123.171 104.585L164.623 102.166L176.397 121.682C176.397 121.682 172.081 133.334 171.72 144.992C174.545 142.734 179.481 139.624 183.171 141.844C185.558 143.276 186.996 145.515 187.609 148.018C188.403 151.263 187.803 154.966 186.074 157.973C184.874 160.063 183.467 162.148 181.519 163.748C178.763 166.013 174.919 167.297 168.99 166.251C169.228 169.432 175.428 169.568 175.428 172.813C175.428 175.877 175.313 180.555 175.428 182.329C176.396 196.845 184.299 201.845 188.331 206.684C192.363 211.523 152.042 225.231 141.397 224.747Z" fill="#FFB983"/>
<path d="M110.592 164.747C117.094 164.747 122.365 159.015 122.365 151.946C122.365 144.876 117.094 139.145 110.592 139.145C104.09 139.145 98.8196 144.876 98.8196 151.946C98.8196 159.015 104.09 164.747 110.592 164.747Z" fill="#FF770F"/>
<path d="M110.591 162.209C115.846 162.209 120.106 157.614 120.106 151.945C120.106 146.277 115.846 141.682 110.591 141.682C105.337 141.682 101.077 146.277 101.077 151.945C101.077 157.614 105.337 162.209 110.591 162.209Z" fill="#FFEFE3"/>
<path d="M141.639 165.714C147.919 165.714 153.01 160.37 153.01 153.778C153.01 147.187 147.919 141.843 141.639 141.843C135.359 141.843 130.268 147.187 130.268 153.778C130.268 160.37 135.359 165.714 141.639 165.714Z" fill="#FF770F"/>
<path d="M141.638 163.859C146.638 163.859 150.691 159.346 150.691 153.778C150.691 148.211 146.638 143.697 141.638 143.697C136.639 143.697 132.586 148.211 132.586 153.778C132.586 159.346 136.639 163.859 141.638 163.859Z" fill="#FFEFE3"/>
<path d="M121.798 148.016C121.798 148.016 127.646 145.794 131.497 149.987C131.497 150.713 130.913 151.944 130.913 151.944C130.913 151.944 125.748 147.89 121.798 150.954C121.155 149.686 120.767 148.311 121.798 148.016Z" fill="#FF770F"/>
<path d="M152.054 150.664L171.541 143.697L171.355 145.422L152.677 153.226L152.054 150.664Z" fill="#FF770F"/>
<path d="M72.893 236.537C72.4628 235.369 72.2939 234.121 72.398 232.881C72.5022 231.64 72.8768 230.438 73.4957 229.358L78.4931 220.553C78.4931 220.553 79.1382 217.112 93.762 215.069C108.386 213.026 122.454 209.351 123.977 208.134C123.977 208.134 149.818 230.331 187.865 206.141C187.865 206.141 218.924 223.671 226.021 224.317C230.19 224.696 233.431 232.904 235.396 239.612C235.722 240.726 235.816 241.894 235.671 243.046C235.527 244.197 235.148 245.306 234.558 246.305C233.967 247.304 233.178 248.171 232.239 248.852C231.3 249.533 230.231 250.014 229.098 250.265C197.698 257.25 88.5084 278.254 72.893 236.537Z" fill="#FF770F"/>
<path d="M181.52 163.746C177.836 172.514 175.32 176.204 172.365 175.875C169.281 175.533 168.307 170.546 168.514 166.159C174.714 167.366 178.694 166.069 181.52 163.746Z" fill="#FF770F"/>
<path d="M187.688 147.81C187.663 147.881 187.637 147.952 187.611 148.017C186.998 145.513 185.559 143.275 183.172 141.842C179.385 139.565 174.282 142.9 171.495 145.178C172.024 135.023 171.134 123.533 165.592 121.036C155.914 116.681 155.521 117.649 149.508 117.971C143.862 118.274 130.023 119.145 127.675 117.784C129.224 119.236 136.533 125.468 148.191 126.036C149.508 127.004 148.656 127.81 147.366 127.649C146.077 127.487 128.495 127.165 115.269 110.552C115.269 110.552 107.598 124.9 107.766 137.81C107.766 137.81 102.849 128.132 105.914 114.261C107.766 103.938 112.527 104.905 112.527 104.905C112.527 104.905 109.3 81.8417 131.397 83.9385C137.849 84.745 148.817 94.2612 156.236 94.0998C163.655 93.9385 170.43 94.4226 170.43 94.4226C170.43 94.4226 180.914 92.8095 182.688 107.003C182.765 109.861 184.828 111.148 190.43 111.842C196.205 112.557 195.269 127.487 187.688 147.81Z" fill="#FF770F"/>
<path d="M240.442 270.466C255.273 270.466 267.297 258.442 267.297 243.61C267.297 228.778 255.273 216.755 240.442 216.755C225.61 216.755 213.586 228.778 213.586 243.61C213.586 258.442 225.61 270.466 240.442 270.466Z" fill="#FF770F" stroke="white" stroke-width="24.5524" stroke-miterlimit="10"/>
<path d="M250.788 241.361H243.141C243.082 241.361 243.023 241.349 242.968 241.327C242.914 241.304 242.864 241.271 242.823 241.229C242.781 241.188 242.748 241.138 242.725 241.083C242.702 241.029 242.691 240.97 242.691 240.911V233.264C242.686 232.671 242.447 232.104 242.025 231.686C241.604 231.269 241.035 231.034 240.442 231.034C239.848 231.034 239.279 231.269 238.858 231.686C238.437 232.104 238.198 232.671 238.192 233.264V240.911C238.192 241.031 238.145 241.145 238.061 241.229C237.976 241.314 237.862 241.361 237.743 241.361H230.096C229.499 241.361 228.927 241.598 228.505 242.02C228.083 242.442 227.846 243.014 227.846 243.61C227.846 244.207 228.083 244.779 228.505 245.201C228.927 245.622 229.499 245.859 230.096 245.859H237.743C237.802 245.859 237.86 245.871 237.915 245.894C237.969 245.916 238.019 245.949 238.061 245.991C238.103 246.033 238.136 246.083 238.158 246.137C238.181 246.192 238.192 246.25 238.192 246.309V253.957C238.198 254.55 238.437 255.117 238.858 255.535C239.279 255.953 239.848 256.187 240.442 256.187C241.035 256.187 241.604 255.953 242.025 255.535C242.447 255.117 242.686 254.55 242.691 253.957V246.309C242.691 246.25 242.702 246.192 242.725 246.137C242.748 246.083 242.781 246.033 242.823 245.991C242.864 245.949 242.914 245.916 242.968 245.894C243.023 245.871 243.082 245.859 243.141 245.859H250.788C251.384 245.859 251.956 245.622 252.378 245.201C252.8 244.779 253.037 244.207 253.037 243.61C253.037 243.014 252.8 242.442 252.378 242.02C251.956 241.598 251.384 241.361 250.788 241.361Z" fill="white"/>
</svg>
