<svg width="156" height="155" viewBox="0 0 156 155" fill="none" xmlns="http://www.w3.org/2000/svg">
<path d="M100.701 40.0873C100.701 40.0873 92.9598 59.8407 123.028 78.0374C149.732 94.1979 122.47 121.272 107.021 125.777C87.009 131.613 64.7034 114.033 54.5655 128.494C44.4276 142.955 13.6145 117.086 27.5606 94.5014C44.9088 66.4076 24.2343 65.9736 20.7729 53.7364C18.2887 44.9538 35.0113 20.749 54.6913 28.3336C71.2518 34.7158 74.2054 27.845 78.1763 23.7987C83.9033 17.9629 105.067 21.9892 100.701 40.0873Z" fill="#FFEFE3"/>
<path d="M66.914 105.328C61.914 105.101 56.2321 99.1156 58.7321 97.5247C61.2322 95.9338 60.9291 92.6004 60.02 92.1462C54.4139 89.9492 53.0502 85.0249 51.8381 78.737C50.626 72.449 51.3078 52.449 51.3078 52.449L58.3533 48.8883L77.8233 47.752L83.3536 56.9187C83.3536 56.9187 81.3264 62.3915 81.1566 67.8673C82.4839 66.8067 84.8022 65.3461 86.5351 66.3885C87.6564 67.0612 88.3321 68.1127 88.6199 69.2886C88.9926 70.8128 88.7108 72.5522 87.8987 73.9644C87.335 74.9461 86.6742 75.9251 85.7593 76.6769C84.465 77.7405 82.6593 78.3436 79.8743 77.8526C79.9865 79.3466 82.8986 79.4104 82.8986 80.9345C82.8986 82.3739 82.8443 84.5709 82.8986 85.4042C83.3531 92.2225 87.0653 94.571 88.9591 96.8438C90.8529 99.1165 71.9141 105.555 66.914 105.328Z" fill="#FFB983"/>
<path d="M52.4446 77.1463C55.4985 77.1463 57.9741 74.4544 57.9741 71.1337C57.9741 67.813 55.4985 65.1211 52.4446 65.1211C49.3907 65.1211 46.915 67.813 46.915 71.1337C46.915 74.4544 49.3907 77.1463 52.4446 77.1463Z" fill="#FF770F"/>
<path d="M52.4445 75.9543C54.9126 75.9543 56.9134 73.7959 56.9134 71.1334C56.9134 68.4709 54.9126 66.3125 52.4445 66.3125C49.9764 66.3125 47.9756 68.4709 47.9756 71.1334C47.9756 73.7959 49.9764 75.9543 52.4445 75.9543Z" fill="#FFEFE3"/>
<path d="M67.028 77.5999C69.9778 77.5999 72.369 75.09 72.369 71.9938C72.369 68.8976 69.9778 66.3877 67.028 66.3877C64.0783 66.3877 61.687 68.8976 61.687 71.9938C61.687 75.09 64.0783 77.5999 67.028 77.5999Z" fill="#FF770F"/>
<path d="M67.0276 76.7287C69.3758 76.7287 71.2793 74.6088 71.2793 71.9937C71.2793 69.3787 69.3758 67.2588 67.0276 67.2588C64.6794 67.2588 62.7759 69.3787 62.7759 71.9937C62.7759 74.6088 64.6794 76.7287 67.0276 76.7287Z" fill="#FFEFE3"/>
<path d="M57.7084 69.2891C57.7084 69.2891 60.455 68.2451 62.264 70.2149C62.264 70.5559 61.9896 71.1342 61.9896 71.1342C61.9896 71.1342 59.5635 69.23 57.7084 70.6692C57.4063 70.0734 57.2242 69.4275 57.7084 69.2891Z" fill="#FF770F"/>
<path d="M71.9194 70.5308L81.0724 67.2588L80.9852 68.0688L72.212 71.7346L71.9194 70.5308Z" fill="#FF770F"/>
<path d="M34.7377 110.866C34.5357 110.317 34.4563 109.731 34.5052 109.149C34.5542 108.566 34.7301 108.001 35.0208 107.494L37.3681 103.358C37.3681 103.358 37.6711 101.742 44.5398 100.783C51.4086 99.823 58.0165 98.0969 58.7319 97.525C58.7319 97.525 70.8692 107.951 88.7399 96.5889C88.7399 96.5889 103.328 104.823 106.661 105.126C108.62 105.304 110.142 109.159 111.065 112.31C111.218 112.833 111.262 113.382 111.194 113.923C111.127 114.464 110.949 114.985 110.671 115.454C110.394 115.923 110.023 116.33 109.582 116.65C109.141 116.97 108.639 117.196 108.107 117.314C93.3581 120.595 42.0722 130.46 34.7377 110.866Z" fill="#FF770F"/>
<path d="M85.7598 76.6768C84.0295 80.795 82.8476 82.528 81.4597 82.3738C80.0112 82.2132 79.5537 79.8705 79.6506 77.8101C82.5628 78.3768 84.4325 77.7677 85.7598 76.6768Z" fill="#FF770F"/>
<path d="M88.6565 69.1916C88.6444 69.2249 88.6322 69.2582 88.6201 69.2886C88.3322 68.1128 87.6565 67.0613 86.5354 66.3886C84.7566 65.3191 82.3596 66.8855 81.0506 67.9552C81.299 63.1855 80.8808 57.7885 78.2778 56.6157C73.7322 54.5702 73.5474 55.0248 70.7231 55.1763C68.0715 55.3187 61.5715 55.7278 60.4685 55.0884C61.1957 55.7704 64.6291 58.6975 70.1049 58.9642C70.7231 59.4187 70.3231 59.7976 69.7174 59.7218C69.1117 59.646 60.8537 59.4945 54.6415 51.6914C54.6415 51.6914 51.0384 58.4309 51.1172 64.4944C51.1172 64.4944 48.8077 59.9488 50.2475 53.4336C51.1172 48.5851 53.3536 49.0393 53.3536 49.0393C53.3536 49.0393 51.8378 38.2064 62.2167 39.1912C65.2469 39.5701 70.3986 44.0398 73.8834 43.964C77.3683 43.8882 80.5502 44.1156 80.5502 44.1156C80.5502 44.1156 85.4745 43.3579 86.3078 50.0247C86.344 51.3668 87.3128 51.9716 89.9442 52.2975C92.6569 52.6333 92.217 59.6461 88.6565 69.1916Z" fill="#FF770F"/>
<path d="M113.435 126.801C120.402 126.801 126.049 121.154 126.049 114.187C126.049 107.221 120.402 101.573 113.435 101.573C106.469 101.573 100.821 107.221 100.821 114.187C100.821 121.154 106.469 126.801 113.435 126.801Z" fill="#FF770F" stroke="white" stroke-width="16.9139" stroke-miterlimit="10"/>
<path d="M118.294 113.132H114.703C114.675 113.132 114.647 113.126 114.622 113.116C114.596 113.105 114.573 113.09 114.553 113.07C114.534 113.05 114.518 113.027 114.507 113.001C114.497 112.976 114.491 112.948 114.491 112.921V109.329C114.489 109.05 114.377 108.784 114.179 108.587C113.981 108.391 113.714 108.281 113.435 108.281C113.156 108.281 112.889 108.391 112.691 108.587C112.493 108.784 112.381 109.05 112.379 109.329V112.921C112.379 112.977 112.356 113.03 112.317 113.07C112.277 113.11 112.223 113.132 112.167 113.132H108.575C108.295 113.132 108.027 113.243 107.828 113.441C107.63 113.639 107.519 113.908 107.519 114.188C107.519 114.468 107.63 114.737 107.828 114.935C108.027 115.133 108.295 115.245 108.575 115.245H112.167C112.195 115.245 112.222 115.25 112.248 115.261C112.274 115.271 112.297 115.287 112.317 115.306C112.336 115.326 112.352 115.349 112.362 115.375C112.373 115.401 112.379 115.428 112.379 115.456V119.048C112.381 119.327 112.493 119.593 112.691 119.789C112.889 119.985 113.156 120.095 113.435 120.095C113.714 120.095 113.981 119.985 114.179 119.789C114.377 119.593 114.489 119.327 114.491 119.048V115.456C114.491 115.428 114.497 115.401 114.507 115.375C114.518 115.349 114.534 115.326 114.553 115.306C114.573 115.287 114.596 115.271 114.622 115.261C114.647 115.25 114.675 115.245 114.703 115.245H118.294C118.575 115.245 118.843 115.133 119.041 114.935C119.24 114.737 119.351 114.468 119.351 114.188C119.351 113.908 119.24 113.639 119.041 113.441C118.843 113.243 118.575 113.132 118.294 113.132Z" fill="white"/>
</svg>
