<svg width="34" height="35" viewBox="0 0 34 35" fill="none" xmlns="http://www.w3.org/2000/svg">
<path d="M7.25344 20.1776C7.14052 20.1912 7.02637 20.1912 6.91344 20.1776H6.72928L6.51678 20.0642L6.36094 19.9792L2.90428 17.1459C2.63188 16.9299 2.45646 16.6145 2.4166 16.2691C2.37675 15.9237 2.47573 15.5766 2.69178 15.3042C2.90782 15.0318 3.22322 14.8564 3.5686 14.8166C3.91398 14.7767 4.26104 14.8757 4.53344 15.0917L5.62428 15.9842C5.91745 13.7526 6.86045 11.6565 8.33591 9.95675C9.81136 8.25701 11.7541 7.02872 13.9224 6.42475C16.0906 5.82078 18.3886 5.8678 20.5303 6.55997C22.6721 7.25214 24.5629 8.55889 25.9676 10.3176C26.0853 10.4625 26.1732 10.6292 26.2262 10.8082C26.2792 10.9872 26.2964 11.1749 26.2766 11.3605C26.2569 11.5461 26.2006 11.726 26.1111 11.8898C26.0216 12.0536 25.9006 12.1982 25.7551 12.3151C25.6093 12.432 25.4419 12.5188 25.2624 12.5707C25.0829 12.6226 24.8949 12.6385 24.7092 12.6174C24.5235 12.5964 24.3439 12.5388 24.1805 12.448C24.0172 12.3572 23.8735 12.235 23.7576 12.0884C22.7016 10.7866 21.2897 9.82012 19.6941 9.30657C18.0985 8.79302 16.3879 8.75462 14.7708 9.19605C13.1537 9.63748 11.7 10.5397 10.5866 11.7927C9.47318 13.0458 8.74825 14.5956 8.50011 16.2534L9.91678 15.1059C10.1806 14.9636 10.486 14.9188 10.7796 14.9793C11.0731 15.0398 11.336 15.2018 11.522 15.4368C11.7079 15.6718 11.8052 15.9649 11.7966 16.2645C11.7881 16.5641 11.6742 16.8511 11.4751 17.0751L8.01844 19.9084C7.94118 19.9564 7.86071 19.999 7.77761 20.0359C7.64081 20.0932 7.49836 20.1359 7.35261 20.1634L7.25344 20.1776ZM31.1668 17.9251L27.7101 15.0917C27.628 15.0436 27.5428 15.001 27.4551 14.9642L27.0301 14.8367H26.9168C26.8039 14.8231 26.6897 14.8231 26.5768 14.8367H26.3784L26.1801 14.9501L26.0243 15.0351L22.5676 17.8684C22.3065 18.0844 22.1419 18.3954 22.11 18.7328C22.0781 19.0702 22.1816 19.4064 22.3976 19.6676C22.6137 19.9287 22.9246 20.0933 23.262 20.1252C23.5994 20.1571 23.9356 20.0536 24.1968 19.8376L25.6134 18.6901C25.3885 20.3752 24.6723 21.9568 23.5542 23.2375C22.4361 24.5182 20.9656 25.4412 19.3262 25.8915C17.6868 26.3418 15.9511 26.2993 14.3357 25.7694C12.7203 25.2395 11.2967 24.2456 10.2426 22.9117C10.1267 22.7652 9.98299 22.6429 9.81967 22.5522C9.65636 22.4614 9.4767 22.4038 9.29103 22.3827C9.10537 22.3616 8.91737 22.3775 8.73786 22.4294C8.55836 22.4813 8.39089 22.5682 8.24511 22.6851C8.09958 22.802 7.97859 22.9465 7.88909 23.1103C7.7996 23.2741 7.74336 23.454 7.72361 23.6396C7.70386 23.8253 7.721 24.013 7.77403 24.1919C7.82705 24.3709 7.91493 24.5377 8.03261 24.6826C9.43729 26.4412 11.3282 27.748 13.4699 28.4402C15.6116 29.1323 17.9096 29.1794 20.0779 28.5754C22.2461 27.9714 24.1889 26.7431 25.6643 25.0434C27.1398 23.3436 28.0828 21.2475 28.3759 19.0159L29.4809 19.9226C29.7458 20.1461 30.0887 20.2553 30.4341 20.2261C30.7794 20.1968 31.0991 20.0316 31.3226 19.7667C31.5462 19.5018 31.6553 19.159 31.6261 18.8136C31.5969 18.4682 31.4317 18.1486 31.1668 17.9251Z" fill="#FF770F"/>
</svg>
