<svg width="46" height="47" viewBox="0 0 46 47" fill="none" xmlns="http://www.w3.org/2000/svg">
<path fill-rule="evenodd" clip-rule="evenodd" d="M9.58423 26.6559C10.3781 26.6559 11.0217 27.2995 11.0217 28.0934V37.1976H34.9801V28.0934C34.9801 27.2995 35.6237 26.6559 36.4176 26.6559C37.2115 26.6559 37.8551 27.2995 37.8551 28.0934V37.6768C37.8551 38.9999 36.7824 40.0726 35.4592 40.0726H10.5426C9.21938 40.0726 8.14673 38.9999 8.14673 37.6768V28.0934C8.14673 27.2995 8.79032 26.6559 9.58423 26.6559Z" fill="#333333"/>
<path d="M16.3507 16.6514C15.7893 17.2128 14.8791 17.2128 14.3178 16.6514C13.7564 16.09 13.7564 15.1799 14.3178 14.6185L21.3068 7.62946C22.2424 6.69383 23.7594 6.69383 24.695 7.62946L31.684 14.6185C32.2454 15.1799 32.2454 16.09 31.684 16.6514C31.1227 17.2128 30.2125 17.2128 29.6511 16.6514L24.4384 11.4387V27.1351C24.4384 27.929 23.7948 28.5726 23.0009 28.5726C22.207 28.5726 21.5634 27.929 21.5634 27.1351V11.4387L16.3507 16.6514Z" fill="#333333"/>
</svg>
