<svg width="101" height="100" viewBox="0 0 101 100" fill="none" xmlns="http://www.w3.org/2000/svg">
<g clip-path="url(#clip0_56_180)">
<path d="M50.168 100C22.5537 100 0.167965 77.6142 0.167967 50C0.167968 22.3858 22.5537 -3.39263e-06 50.168 -2.18557e-06C77.7822 -9.78513e-07 100.168 22.3858 100.168 50C100.168 77.6142 77.7822 100 50.168 100ZM50.168 15C30.838 15 15.168 30.67 15.168 50C15.168 69.33 30.838 85 50.168 85C69.4979 85 85.168 69.33 85.168 50C85.168 30.67 69.4979 15 50.168 15Z" fill="#EEEEEE"/>
<path d="M50.168 92.5C50.168 96.6421 46.7915 100.058 42.6958 99.4386C34.8115 98.2469 27.2883 95.1803 20.7787 90.4508C14.2691 85.7214 9.02784 79.514 5.4581 72.3838C3.60376 68.6799 5.80866 64.4132 9.74807 63.1332C13.6875 61.8532 17.8538 64.0697 19.9423 67.6468C22.373 71.8101 25.6517 75.4503 29.5955 78.3156C33.5392 81.1809 38.0145 83.1743 42.7251 84.1995C46.7725 85.0804 50.168 88.3579 50.168 92.5Z" fill="#FF770F"/>
</g>
<defs>
<clipPath id="clip0_56_180">
<rect width="100" height="100" fill="white" transform="translate(100.168) rotate(90)"/>
</clipPath>
</defs>
</svg>
