<svg width="420" height="421" viewBox="0 0 420 421" fill="none" xmlns="http://www.w3.org/2000/svg">
<path d="M321.688 163.685C321.688 163.685 284.13 196.652 327.376 267.245C365.783 329.939 279.457 357.115 242.257 349.838C194.068 340.411 166.399 279.503 129.547 298.802C92.6953 318.102 56.1872 230.648 109.792 198.467C176.474 158.436 133.678 135.173 139.667 105.821C143.966 84.7551 205.134 52.1854 238.115 89.3375C265.869 120.601 279.48 109.416 292.165 105.243C310.461 99.2231 350.395 130.533 321.688 163.685Z" fill="#FFEFE3"/>
<path d="M215.347 200.834L203.043 251.307C202.586 253.179 202.502 255.122 202.797 257.026C203.091 258.93 203.758 260.758 204.759 262.404C205.76 264.05 207.075 265.483 208.63 266.621C210.185 267.759 211.949 268.579 213.821 269.035L275.019 283.954C276.592 301.231 290.89 302.508 296.531 303.1C296.587 303.103 296.642 303.088 296.688 303.056C296.733 303.025 296.768 302.979 296.785 302.926C296.802 302.873 296.801 302.816 296.783 302.764C296.764 302.712 296.728 302.667 296.682 302.637C292.631 300.168 291.422 293.399 291.151 287.887L295.695 288.995C297.566 289.452 299.51 289.535 301.414 289.241C303.318 288.946 305.145 288.28 306.791 287.279C308.438 286.278 309.871 284.962 311.008 283.407C312.146 281.852 312.966 280.089 313.422 278.217L325.727 227.744C326.184 225.872 326.267 223.929 325.973 222.025C325.678 220.12 325.012 218.293 324.011 216.647C323.01 215.001 321.694 213.568 320.14 212.43C318.585 211.292 316.821 210.472 314.949 210.016L233.075 190.056C231.203 189.599 229.26 189.516 227.356 189.81C225.452 190.104 223.624 190.771 221.978 191.772C220.332 192.773 218.899 194.089 217.761 195.644C216.624 197.198 215.803 198.962 215.347 200.834Z" fill="#FFB983"/>
<path d="M316.862 225.734L282.641 217.391C282.416 217.337 282.189 217.475 282.134 217.7L280.378 224.901C280.323 225.126 280.461 225.354 280.687 225.409L314.907 233.751C315.133 233.806 315.36 233.668 315.415 233.443L317.17 226.242C317.225 226.016 317.087 225.789 316.862 225.734Z" fill="#FFEFE3"/>
<path d="M311.975 245.777L219.257 223.173C219.032 223.118 218.804 223.256 218.75 223.481L216.994 230.682C216.939 230.908 217.077 231.135 217.303 231.19L310.021 253.794C310.246 253.849 310.473 253.711 310.528 253.485L312.284 246.284C312.339 246.059 312.201 245.832 311.975 245.777Z" fill="#FFEFE3"/>
<path d="M307.089 265.821L214.371 243.217C214.145 243.162 213.918 243.3 213.863 243.525L212.108 250.726C212.053 250.952 212.191 251.179 212.416 251.234L305.134 273.838C305.36 273.893 305.587 273.755 305.642 273.529L307.397 266.328C307.452 266.103 307.314 265.876 307.089 265.821Z" fill="#FFEFE3"/>
<path d="M249.803 140.288L269.925 204.905C270.672 207.301 270.939 209.821 270.712 212.321C270.485 214.82 269.767 217.25 268.6 219.473C267.434 221.695 265.84 223.665 263.912 225.271C261.983 226.878 259.757 228.088 257.36 228.834L179.014 253.23C178.38 275.82 159.895 278.649 152.61 279.879C152.538 279.889 152.464 279.874 152.401 279.837C152.338 279.8 152.29 279.743 152.263 279.675C152.236 279.607 152.232 279.533 152.253 279.463C152.274 279.393 152.317 279.332 152.376 279.289C157.441 275.748 158.46 266.848 158.361 259.661L152.544 261.472C150.148 262.219 147.628 262.486 145.129 262.259C142.629 262.032 140.199 261.314 137.977 260.147C135.755 258.981 133.785 257.387 132.179 255.459C130.572 253.531 129.362 251.305 128.616 248.908L108.494 184.291C107.748 181.895 107.48 179.375 107.707 176.876C107.935 174.376 108.652 171.946 109.819 169.724C110.986 167.501 112.579 165.531 114.508 163.925C116.436 162.318 118.662 161.108 121.059 160.362L225.874 127.723C228.271 126.977 230.79 126.709 233.29 126.936C235.79 127.164 238.22 127.881 240.442 129.048C242.664 130.215 244.635 131.808 246.241 133.737C247.847 135.665 249.058 137.891 249.803 140.288Z" fill="#FF770F"/>
<path d="M175.779 163.431L119.65 180.887C119.428 180.956 119.304 181.191 119.373 181.413L122.317 190.877C122.386 191.098 122.621 191.222 122.842 191.153L178.971 173.697C179.193 173.629 179.316 173.393 179.248 173.172L176.304 163.708C176.235 163.486 176 163.362 175.779 163.431Z" fill="#FFEFE3"/>
<path d="M246.611 169.43L127.669 206.469C127.448 206.538 127.324 206.773 127.393 206.995L130.339 216.456C130.408 216.678 130.644 216.802 130.865 216.733L249.807 179.693C250.028 179.624 250.152 179.389 250.083 179.167L247.136 169.706C247.067 169.484 246.832 169.361 246.611 169.43Z" fill="#FFEFE3"/>
<path d="M254.59 195.221L135.621 232.22C135.399 232.289 135.275 232.524 135.344 232.746L138.287 242.21C138.356 242.431 138.592 242.555 138.813 242.486L257.783 205.487C258.004 205.418 258.128 205.183 258.059 204.962L255.116 195.498C255.047 195.276 254.811 195.152 254.59 195.221Z" fill="#FFEFE3"/>
</svg>
