<svg width="42" height="42" viewBox="0 0 42 42" fill="none" xmlns="http://www.w3.org/2000/svg">
<path fill-rule="evenodd" clip-rule="evenodd" d="M36.75 21C36.75 29.6985 29.6985 36.75 21 36.75C12.3015 36.75 5.25 29.6985 5.25 21C5.25 12.3015 12.3015 5.25 21 5.25C29.6985 5.25 36.75 12.3015 36.75 21ZM22.75 14C22.75 14.9665 21.9665 15.75 21 15.75C20.0335 15.75 19.25 14.9665 19.25 14C19.25 13.0335 20.0335 12.25 21 12.25C21.9665 12.25 22.75 13.0335 22.75 14ZM22 29.75V19.25H20V29.75H22Z" fill="#BEBEBE"/>
</svg>
