<svg width="451" height="330" viewBox="0 0 451 330" fill="none" xmlns="http://www.w3.org/2000/svg">
<g clip-path="url(#clip0_333_2227)">
<rect width="450" height="330" transform="translate(0.967773)" fill="white"/>
<circle cx="399.396" cy="223.312" r="19.5718" fill="#FFEFE3"/>
<circle cx="194.987" cy="53.0244" r="14.1162" fill="#FFEFE3"/>
<path d="M137.871 93.7769C137.871 93.7769 189.128 126.823 267.052 65.0319C336.256 10.1552 392.761 96.7382 393.157 138.201C393.67 191.913 323.953 234.888 357.786 270.167C391.619 305.445 290.69 363.701 236.294 313.284C168.629 250.568 150.296 301.525 111.727 301.525C84.0459 301.525 27.2127 243.087 65.5916 199.611C97.8868 163.026 80.2742 150.884 71.7429 138.201C59.4401 119.909 88.6595 70.2583 137.871 93.7769Z" fill="#FFEFE3"/>
<path d="M160.919 156.084C161.266 156.084 161.439 156.084 161.554 156.188C161.67 156.293 161.687 156.466 161.721 156.812L162.508 164.677C162.573 165.336 162.607 165.666 162.83 165.759C163.053 165.851 163.309 165.641 163.822 165.222L169.942 160.216C170.211 159.996 170.345 159.886 170.501 159.894C170.656 159.901 170.779 160.024 171.024 160.27L176.843 166.089C177.089 166.334 177.212 166.457 177.219 166.612C177.227 166.768 177.117 166.902 176.897 167.171L171.89 173.289C171.471 173.802 171.261 174.059 171.353 174.282C171.446 174.505 171.776 174.538 172.435 174.604L180.301 175.392C180.647 175.426 180.82 175.443 180.924 175.559C181.029 175.674 181.029 175.847 181.029 176.194V184.424C181.029 184.771 181.029 184.944 180.924 185.06C180.82 185.175 180.647 185.192 180.301 185.227L172.436 186.014C171.777 186.08 171.447 186.113 171.354 186.336C171.262 186.559 171.472 186.816 171.891 187.328L176.897 193.446C177.117 193.715 177.227 193.85 177.219 194.005C177.212 194.16 177.089 194.283 176.843 194.528L171.024 200.348C170.779 200.593 170.656 200.716 170.501 200.724C170.345 200.731 170.211 200.621 169.942 200.401L163.823 195.395C163.31 194.975 163.054 194.765 162.831 194.857C162.608 194.95 162.574 195.28 162.508 195.939L161.721 203.807C161.687 204.152 161.67 204.325 161.554 204.43C161.439 204.534 161.266 204.534 160.919 204.534H152.689C152.342 204.534 152.169 204.534 152.053 204.43C151.938 204.325 151.92 204.152 151.885 203.807L151.098 195.941C151.032 195.282 151 194.952 150.777 194.859C150.554 194.767 150.297 194.977 149.784 195.396L143.666 200.402C143.397 200.622 143.262 200.732 143.107 200.725C142.952 200.717 142.829 200.594 142.584 200.349L136.764 194.529C136.519 194.284 136.396 194.161 136.388 194.006C136.381 193.85 136.491 193.716 136.711 193.447L141.716 187.328C142.136 186.815 142.346 186.558 142.254 186.335C142.161 186.112 141.831 186.08 141.172 186.014L133.306 185.227C132.961 185.192 132.788 185.175 132.683 185.06C132.579 184.944 132.579 184.771 132.579 184.424V176.194C132.579 175.847 132.579 175.674 132.683 175.559C132.788 175.443 132.961 175.426 133.306 175.392L141.173 174.604C141.832 174.538 142.162 174.505 142.255 174.282C142.347 174.059 142.137 173.802 141.717 173.289L136.712 167.17C136.492 166.901 136.382 166.767 136.389 166.611C136.397 166.456 136.52 166.333 136.765 166.088L142.584 160.269C142.829 160.023 142.952 159.9 143.107 159.893C143.262 159.885 143.397 159.995 143.666 160.215L149.785 165.221C150.298 165.64 150.555 165.85 150.778 165.758C151.001 165.665 151.033 165.335 151.099 164.676L151.886 156.812C151.921 156.466 151.938 156.293 152.053 156.188C152.169 156.084 152.342 156.084 152.689 156.084H160.919ZM156.804 170.619C151.453 170.619 147.114 174.958 147.114 180.31C147.114 185.661 151.453 189.999 156.804 189.999C162.156 189.999 166.494 185.661 166.494 180.31C166.494 174.958 162.156 170.619 156.804 170.619Z" fill="#FFB983"/>
<path d="M122.726 75.5356C123.38 75.8234 123.706 75.9675 123.837 76.2596C123.967 76.5516 123.857 76.8909 123.635 77.5698L118.594 93.0309C118.171 94.3269 117.96 94.9755 118.303 95.3346C118.647 95.6936 119.304 95.5106 120.617 95.1458L136.286 90.7945C136.974 90.6034 137.318 90.5084 137.605 90.6518C137.89 90.7953 138.02 91.1282 138.279 91.7937L144.407 107.569C144.666 108.235 144.795 108.568 144.681 108.867C144.567 109.166 144.249 109.328 143.612 109.651L129.12 117.016C127.905 117.634 127.297 117.943 127.286 118.44C127.275 118.936 127.869 119.272 129.055 119.942L143.208 127.944C143.829 128.295 144.141 128.471 144.242 128.775C144.342 129.078 144.198 129.405 143.91 130.058L137.09 145.547C136.802 146.2 136.658 146.528 136.366 146.658C136.074 146.789 135.734 146.678 135.055 146.457L119.596 141.416C118.3 140.993 117.652 140.783 117.293 141.126C116.934 141.47 117.116 142.127 117.481 143.44L121.833 159.108C122.024 159.796 122.12 160.14 121.976 160.426C121.833 160.712 121.5 160.841 120.834 161.1L105.059 167.23C104.394 167.489 104.061 167.618 103.762 167.504C103.463 167.39 103.301 167.071 102.977 166.434L95.6092 151.938C94.9916 150.723 94.6823 150.115 94.1855 150.104C93.6889 150.094 93.3533 150.688 92.6826 151.874L84.6806 166.031C84.3291 166.653 84.1533 166.964 83.8497 167.065C83.5461 167.165 83.219 167.022 82.5655 166.734L67.0769 159.913C66.4234 159.626 66.0964 159.481 65.9659 159.189C65.8354 158.897 65.9463 158.557 66.1676 157.878L71.207 142.42C71.6294 141.124 71.8402 140.475 71.4967 140.116C71.1531 139.758 70.4965 139.94 69.1836 140.305L53.5162 144.656C52.8279 144.847 52.483 144.943 52.197 144.8C51.9111 144.656 51.7815 144.324 51.5229 143.658L45.3947 127.884C45.136 127.218 45.0059 126.885 45.12 126.586C45.2343 126.287 45.5532 126.125 46.1897 125.802L60.6887 118.431C61.9038 117.814 62.5114 117.504 62.5224 117.008C62.5334 116.511 61.9405 116.175 60.7537 115.504L46.5953 107.502C45.9734 107.151 45.6621 106.975 45.5612 106.671C45.4604 106.368 45.6042 106.041 45.892 105.387L52.7126 89.8985C53.0003 89.245 53.1446 88.9182 53.4366 88.7875C53.7287 88.6569 54.0686 88.7679 54.7477 88.9893L70.2078 94.0281C71.5037 94.4505 72.1515 94.662 72.5106 94.3187C72.8696 93.9752 72.6875 93.3182 72.3227 92.0048L67.9715 76.3386C67.7804 75.6506 67.6844 75.3063 67.8275 75.0203C67.9709 74.7343 68.3046 74.6053 68.9703 74.3466L84.7446 68.2162C85.4102 67.9575 85.7432 67.8283 86.0421 67.9425C86.341 68.0567 86.5035 68.3748 86.8272 69.0116L94.195 83.5072C94.8125 84.722 95.121 85.3301 95.6174 85.3415C96.1142 85.3525 96.4504 84.7586 97.1212 83.5719L105.122 69.4174C105.474 68.796 105.65 68.4852 105.953 68.3842C106.257 68.2834 106.584 68.4272 107.237 68.715L122.726 75.5356ZM102.933 99.4841C92.8593 95.0485 81.097 99.6184 76.6611 109.692C72.2254 119.765 76.7956 131.527 86.8687 135.963C96.942 140.399 108.705 135.829 113.141 125.756C117.577 115.683 113.006 103.92 102.933 99.4841Z" fill="#FFB983"/>
<path d="M323.94 110.215C300.548 56.6258 256.423 64.1396 237.284 74.5951C216.027 76.6196 206.183 88.0695 202.019 99.9719C177.653 155.386 208.309 234.086 194.753 238.605C183.907 242.22 161.48 272.817 151.734 288.5L130.609 263.375C125.93 276.134 107.298 283.262 98.5264 285.655C99.3239 290.174 116.07 329.781 136.538 351.312C152.913 368.537 177.563 345.73 187.841 332.173C191.244 341.742 190.5 366.995 189.702 378.425C232.853 379.223 326.014 380.339 353.446 378.425C387.737 376.033 378.734 312 368.234 281C360.771 258.968 353.446 243.656 338.826 243.656C343.611 221.504 347.332 163.804 323.94 110.215Z" fill="#FF770F"/>
<path d="M322.874 145.568C314.793 135.786 306.747 141.492 303.735 145.568C271.411 127.918 245.964 100.999 237.28 89.7461C229.66 96.746 213.144 112.66 208.04 120.315C201.66 129.885 203.255 137.859 201.66 155.669C200.384 169.917 203.078 181.985 204.584 186.238C212.453 208.354 228.597 214.415 235.685 214.681V219.997C237.812 249.981 248.267 271.3 253.229 278.211C264.287 270.981 287.786 234.794 298.153 217.605C295.388 211.863 299.304 186.327 301.608 174.276C314.367 182.783 332.975 157.796 322.874 145.568Z" fill="#FFB983"/>
<path d="M128.56 256.415C128.135 258.754 129.624 261.997 130.421 263.326C125.317 278.637 107.206 284.946 98.7886 286.186L97.4595 280.604C63.2221 262.741 67.5993 248.883 74.0675 244.187C70.665 239.509 75.4852 233.731 78.3206 231.428C77.8953 224.623 84.1686 221.681 87.3584 221.061C83.3712 218.314 73.9612 211.119 68.2195 204.314C62.4778 197.509 67.4221 194.568 70.6119 193.947C77.2573 197.58 94.695 207.663 111.282 218.934C132.016 233.023 129.092 253.491 128.56 256.415Z" fill="#FFB983"/>
<path d="M111.548 225.845C106.364 225.668 94.9874 228.264 90.947 240.066C87.5546 249.976 99.6654 244.307 108.226 239.454C109.229 238.886 110.619 240.266 110.145 241.316C107.765 246.596 105.869 254.57 111.548 259.471" stroke="#FF770F" stroke-width="3.18982" stroke-linecap="round"/>
<path d="M90.8806 239.535L79.6497 232.025" stroke="#FF770F" stroke-width="3.18982" stroke-linecap="round"/>
<path d="M99.3867 228.769L90.4153 222.39" stroke="#FF770F" stroke-width="3.18982" stroke-linecap="round"/>
<path d="M100.849 245.449C101.534 249.079 101.036 255.242 94.983 255.488C92.1347 255.603 89.4938 254.177 87.0123 252.774L82.8728 250.433L75.6624 245.449" stroke="#FF770F" stroke-width="3.18982" stroke-linecap="round"/>
<path d="M95.3995 255.495C95.9311 260.125 93.6584 267.709 80.3143 261.011" stroke="#FF770F" stroke-width="3.18982" stroke-linecap="round"/>
<path d="M227.578 134.936C225.495 132.942 218.885 129.433 209.103 131.347" stroke="#FF770F" stroke-width="4.2531" stroke-linecap="round"/>
<path d="M252.299 135.467C254.381 133.473 262.187 131.692 271.969 133.606" stroke="#FF770F" stroke-width="4.2531" stroke-linecap="round"/>
<path d="M304.399 256.813L311.975 228.902L302.273 254.554L286.324 257.744L292.305 269.307L254.824 282.199L296.292 269.971L290.843 259.471L304.399 256.813Z" fill="#FF9E53"/>
<path d="M219.337 252.428L225.85 229.302L216.28 253.093L225.85 258.276L220.268 266.516L252.166 281.934L222.793 266.516L229.704 257.744L219.337 252.428Z" fill="#FF9E53"/>
<path d="M248.488 379.474C251.083 376.284 254.526 298.755 252.363 287.059C251.732 289.894 243.729 352.015 245.243 364.455C246.67 376.176 243.728 379.3 241.801 379.474H241.458C241.568 379.484 241.682 379.485 241.801 379.474H248.488Z" fill="#FF9E53"/>
<path d="M325.766 305.358C329.975 312.446 331.32 362.426 333.658 379.057H325.766V305.358Z" fill="#FF9E53"/>
<ellipse cx="4.58537" cy="7.50937" rx="4.58537" ry="7.50937" transform="matrix(-1 0 0 1 265.191 142.645)" fill="#FF770F"/>
<ellipse cx="4.58537" cy="7.50937" rx="4.58537" ry="7.50937" transform="matrix(-1 0 0 1 222.926 142.645)" fill="#FF770F"/>
<path d="M226.78 166.169C231.778 159.683 233.913 152.657 234.356 149.954C236.376 154.633 231.654 163.422 229.04 167.232C229.252 169.359 235.685 172.106 238.875 173.213C231.219 173.213 227.622 168.517 226.78 166.169Z" fill="#FF770F"/>
<path d="M230.337 184.841C239.424 186.889 248.26 185.556 253.21 183.848C254.067 183.552 254.985 184.334 254.723 185.202C248.472 205.913 235.908 195.793 229.174 186.473C228.597 185.675 229.377 184.624 230.337 184.841Z" fill="#FF770F"/>
<path d="M273.166 207.77C260.194 216.701 242.685 216.365 235.552 215.08L236.483 230.63C267.982 225.447 289.381 196.606 273.166 207.77Z" fill="#FF9E53"/>
<path d="M196.938 303.151C195.409 304.119 182.434 340.613 181.029 357.578L186.91 356.966C187.63 339.398 198.468 302.182 196.938 303.151Z" fill="#FF9E53"/>
</g>
<defs>
<clipPath id="clip0_333_2227">
<rect width="450" height="330" fill="white" transform="translate(0.967773)"/>
</clipPath>
</defs>
</svg>
