<svg width="451" height="330" viewBox="0 0 451 330" fill="none" xmlns="http://www.w3.org/2000/svg">
<rect width="450" height="330" transform="translate(0.5)" fill="white"/>
<path d="M288.077 48.2835C288.077 48.2835 238.97 103.2 160.398 70.4438C81.8258 37.6878 3.25472 126.323 70.9129 180.276C138.571 234.229 72.3625 263.876 118.327 296.941C170.57 334.523 216.053 258.315 257.521 275.657C349.043 313.931 396 290 403.5 250C403.5 173.5 340.458 171.605 366.648 131.14C392.839 90.6751 335.036 6.53883 288.077 48.2835Z" fill="#FFEFE3"/>
<rect x="145.24" y="118.562" width="43.25" height="29.875" fill="#FF9E53"/>
<path d="M98.9249 134.694C97.2441 133.498 97.2441 131.001 98.9249 129.805L142.876 98.5278C144.862 97.1143 147.615 98.5343 147.615 100.972L147.615 163.527C147.615 165.964 144.862 167.384 142.876 165.971L98.9249 134.694Z" fill="#FF9E53"/>
<path d="M128.865 199.187C112.962 212.818 122.581 243.183 129.605 257.175C129.768 257.498 130.103 257.697 130.464 257.709C152.579 258.482 150.639 254 160.303 247.062C170.053 240.062 171.865 230.687 173.49 219.812C174.661 211.98 169.435 209.503 165.858 209.118C165.264 209.054 164.796 208.541 164.813 207.944C164.974 202.479 162.297 197.563 160.365 196.187C149.053 190.312 133.782 195.27 128.865 199.187Z" fill="#FFB983"/>
<path d="M183.616 114.062C176.866 105.729 170.791 86.6619 200.491 77.0619C206.907 71.6869 226.715 62.8369 254.615 70.4369C282.515 78.0369 294.99 102.104 297.74 113.187C298.74 117.604 300.44 127.587 299.24 132.187C307.348 129.443 326.009 130.137 336.806 154.274C337.184 155.118 337.472 156.013 337.659 156.919C338.624 161.602 340.115 170.939 340.115 179.687C340.115 188.412 347.06 195.094 351.579 198.078C352.499 198.685 353.496 199.237 354.079 200.172C355.285 202.109 355.741 205.591 351.74 210.062C345.365 217.187 309.99 224.187 295.74 198.937C284.603 179.202 290.694 157.542 295.41 148.551C291.198 156.298 281.252 171.985 272.49 177.437C268.74 176.395 261.69 171.887 263.49 162.187C267.407 158.895 274.465 150.5 273.365 141.5C272.265 132.5 266.824 129.562 263.615 128.687C259.657 127.77 253.428 128.062 246.74 137.937L245.24 140.437L226.365 129.937L195.49 97.062L183.616 114.062Z" fill="#FF770F"/>
<path d="M175.49 145.687C181.49 140.087 182.49 127.021 182.24 121.188C182.112 104.907 190.429 96.7227 196.418 92.9443C197.212 98.3648 216.506 118.2 225.605 125.48C225.783 125.623 225.969 125.737 226.176 125.832C228.413 126.865 231.544 128.147 233.74 132.062C235.606 135.388 240.694 137.074 244.318 137.748C245.632 137.993 246.86 137.187 247.499 136.012C250.499 130.489 255.768 128.123 259.24 127.562C263.553 127.281 272.115 128.437 273.74 140.687C274.972 149.97 268.375 158.191 264.382 161.653C263.968 162.013 263.626 162.458 263.491 162.989C262.029 168.746 267.53 174.403 271.242 177.088C271.799 177.491 272.231 178.044 272.444 178.697L277.281 193.52C277.638 194.616 277.336 195.819 276.504 196.617L216.494 254.136C215.416 255.17 213.715 255.174 213.318 253.734C211.382 246.698 217.473 228.019 221.494 217.751C221.734 217.139 221.77 216.469 221.593 215.836L217.726 201.953C217.309 200.458 215.818 199.533 214.286 199.782C203.556 201.523 196.355 201.038 190.115 194.625C183.365 187.687 182.803 170.625 182.303 168C181.903 165.902 182.803 164 175.49 162.25C170.281 161.004 168.881 157.98 168.784 156.171C168.762 155.768 168.732 155.357 168.778 154.957C168.943 153.535 170.408 150.43 175.49 145.687Z" fill="#FFB983"/>
<path d="M277.598 194.573L217.755 251.767C217.064 252.428 215.927 251.833 216.077 250.888L221.042 219.442C221.143 218.803 220.616 218.237 219.973 218.316C196.935 221.124 180.219 249.143 173.832 264.899C173.502 265.714 172.353 265.755 171.968 264.964L162.765 246.079C162.472 245.478 161.683 245.329 161.177 245.766C150.867 254.674 138.499 257.305 131.115 257.062C125.015 256.862 126.825 263.203 127.49 267.062C132.115 293.938 146.74 317.812 165.99 319.938C179.288 321.406 187.64 316.765 191.255 313.244C191.855 312.66 192.933 312.881 193.13 313.695C193.863 316.72 194.935 321.536 195.625 323.75C196.725 327.279 197.002 329.059 197.897 329.833C198.037 329.954 198.223 330 198.408 330H352.75C356 330 355.09 324.238 355.49 318.438C355.99 311.188 346.99 267.938 333.74 246.188C320.49 224.438 300.365 216.562 294.99 213.688C289.615 210.812 286.49 205.313 283.865 199.188C281.869 194.53 279.188 194.021 277.926 194.376C277.8 194.411 277.692 194.484 277.598 194.573Z" fill="#FF770F"/>
<path d="M191.851 129.744C186.278 129.884 187.666 126.075 189.367 124.374C194.866 120.124 200.867 120.812 203.93 121.437C205.26 121.708 205.822 122.509 205.931 123.387C206.1 124.753 204.589 125.468 203.225 125.648C199.542 126.135 196.112 127.731 193.616 129.196C193.077 129.512 192.475 129.728 191.851 129.744Z" fill="#FF770F"/>
<ellipse cx="195.678" cy="139.094" rx="3.5625" ry="6.84375" fill="#FF770F"/>
<path d="M197.74 173.374C196.065 170.675 189.098 173.325 185.134 175.317C184.603 175.584 184.187 176.09 184.239 176.683C184.401 178.522 186.411 179.038 187.65 179.061C187.752 179.063 187.85 179.054 187.951 179.036C192.049 178.323 199.518 176.239 197.74 173.374Z" fill="#FF770F"/>
<path d="M252.002 165.807C256.389 165.556 261.269 163.743 264.568 162.422C265.846 161.911 267.222 162.812 267.264 164.188L267.32 165.996C267.347 166.873 266.803 167.667 265.961 167.912C262.604 168.888 256.92 170.04 253.1 169.083C249.067 168.072 250.021 166.716 251.239 166.012C251.471 165.878 251.735 165.822 252.002 165.807Z" fill="#FF770F"/>
<path d="M235.865 190.438L216.459 200.219L221.74 216.453C233.74 208.203 237.428 198.375 238.99 193.688C240.24 189.938 237.428 189.958 235.865 190.438Z" fill="#FF9E53"/>
<path d="M147.365 232.625C147.782 234.271 148.24 238.013 146.74 239.812" stroke="#FF770F" stroke-width="3" stroke-linecap="round"/>
<path d="M164.552 210.188C160.865 210.792 153.411 214.119 156.365 221.438C159.115 228.25 167.928 226.562 170.991 220.875" stroke="#FF770F" stroke-width="3" stroke-linecap="round"/>
<path d="M144.115 201.438C147.74 201.562 155.59 203.962 157.99 212.562" stroke="#FF770F" stroke-width="3" stroke-linecap="round"/>
<path d="M134.365 212.563C140.704 211.527 152.554 213.243 149.544 228.303C149.51 228.471 149.452 228.64 149.373 228.793C147.871 231.698 144.345 236.679 139.532 232.571C139.339 232.407 139.185 232.196 139.074 231.968C137.928 229.613 136.032 226.134 133.115 225.688" stroke="#FF770F" stroke-width="3" stroke-linecap="round"/>
<path d="M150.365 227.562C151.865 227.833 155.14 227.262 156.24 222.812" stroke="#FF770F" stroke-width="3" stroke-linecap="round"/>
<path d="M281.724 277.385C279.92 294.768 286.837 318.837 290.751 329.364C290.896 329.753 291.265 330 291.68 330H294.781C295.546 330 296.046 329.182 295.727 328.487C290.207 316.423 285.811 282.866 284.615 279.165C283.641 276.147 282.666 275.313 281.808 277.085C281.762 277.179 281.735 277.281 281.724 277.385Z" fill="#FF9E53"/>
<path d="M188.865 276.812C184.865 284.354 180.04 301.938 192.74 311.938C190.157 304.021 185.765 285.913 188.865 276.812Z" fill="#FF9E53"/>
<circle cx="61.2249" cy="227.641" r="19.8596" fill="#FFEFE3"/>
<circle cx="403.725" cy="139.094" r="12.3955" fill="#FFEFE3"/>
</svg>
