<svg width="451" height="330" viewBox="0 0 451 330" fill="none" xmlns="http://www.w3.org/2000/svg">
<g clip-path="url(#clip0_302_657)">
<rect width="450" height="330" transform="translate(0.5)" fill="white"/>
<path d="M332.943 75.683C332.54 77.3767 331.784 78.9824 331.071 80.5709C326.549 90.6567 314.037 132.161 387.5 176.5C470.796 219.74 381.704 290.7 333.516 302.754C271.093 318.369 201.516 271.331 169.893 310.024C138.271 348.716 42.1567 279.499 85.6583 219.071C139.772 143.901 108.297 132.743 97.4997 99.9999C89.7507 76.5004 108.899 21.7335 170.286 42.0277C221.942 59.1044 231.155 40.7202 243.542 29.8937C262.17 5.43306 344.32 27.8172 332.943 75.683Z" fill="#FFEFE3"/>
<circle cx="379.505" cy="87.5625" r="23.9951" fill="#FFEFE3"/>
<circle cx="64.8838" cy="177.299" r="14.1162" fill="#FFEFE3"/>
<path d="M336.094 211.893C314.14 212.447 326.947 247.789 336.094 265.39C344.243 284.184 367.162 279.134 377.603 274.26L380.583 260.816C396.66 206.21 371.02 202.052 353.557 199.973C339.587 198.31 336.094 207.227 336.094 211.893Z" fill="#FFB983"/>
<path d="M331.52 232.819C333.045 236.7 337.979 243.657 345.518 240.442" stroke="#FF770F" stroke-width="3.32628" stroke-linecap="round"/>
<path d="M336.648 212.724C336.833 214.71 338.256 218.572 342.469 218.129C343.948 215.495 350.147 210.728 363.12 212.724" stroke="#FF770F" stroke-width="3.32628" stroke-linecap="round"/>
<path d="M342.608 218.96C342.377 222.009 342.885 228.634 346.766 230.741" stroke="#FF770F" stroke-width="3.32628" stroke-linecap="round"/>
<path d="M367.555 224.087C360.81 223.81 347.071 225.557 346.073 234.759C345.075 243.962 350.924 247.002 353.973 247.372" stroke="#FF770F" stroke-width="3.32628" stroke-linecap="round"/>
<path d="M371.158 237.531C363.813 236.284 350.813 238.917 357.576 259.429" stroke="#FF770F" stroke-width="3.32628" stroke-linecap="round"/>
<path d="M164.375 216.189C166.814 210.091 172.228 206.441 174.631 205.379L220.506 243.908C224.608 242.689 237.368 222.334 243.235 212.309C245.785 212.309 249.38 216.928 250.858 219.238C284.564 215.025 314.612 260.355 325.422 283.547L335.955 266.084C345.269 282.937 367.37 278.65 377.257 274.399C374.601 307.023 363.24 331.832 355.556 343.936C353.386 347.354 350.169 349.995 346.326 351.273C319.782 360.1 299.168 340.389 292.436 331.068V350.904L79 348.409C80.0164 332.702 84.2666 293.636 93.1367 263.034C104.224 224.782 161.326 223.812 164.375 216.189Z" fill="#FF770F"/>
<path d="M155.504 133.587C164.153 130.26 169.271 137.929 170.75 142.18H174.353L183.778 93.9482C207.246 92.0079 255.404 89.2914 260.282 93.9482C266.38 99.7692 273.587 136.913 270.261 170.73C267.6 197.784 251.043 206.025 243.096 206.765V212.308C236.444 226.501 225.87 240.224 221.25 244.751L174.353 205.379C175.018 196.287 172.228 178.491 170.75 170.73C144.417 169.067 144.694 137.744 155.504 133.587Z" fill="#FFB983"/>
<path d="M259.225 118.958L239.96 125.195L242.593 128.382L264.353 122.561L259.225 118.958Z" fill="#FF770F"/>
<path d="M202.18 121.007L222.147 124.373L220.006 127.911L197.631 125.319L202.18 121.007Z" fill="#FF770F"/>
<ellipse cx="207.936" cy="138.845" rx="5.07691" ry="8.73708" fill="#FF770F"/>
<ellipse cx="252.156" cy="138.845" rx="5.07691" ry="8.73708" fill="#FF770F"/>
<path d="M236.824 138.854C243.451 148.463 251.877 166.85 232.563 163.523" stroke="#FF770F" stroke-width="4.43504" stroke-linecap="round"/>
<path d="M210.942 176.829C214.13 180.155 225.55 185.062 245.73 178.076" stroke="#FF770F" stroke-width="4.43504" stroke-linecap="round"/>
<path d="M199.274 203.262C218.538 213.059 236.135 210.382 243.166 206.904V212.402C228.574 225.516 209.587 215.191 197.952 204.955C196.975 204.096 198.114 202.673 199.274 203.262Z" fill="#FF9E53"/>
<path d="M248.086 257.768C246.534 250.451 236.629 241.784 231.87 238.365C236.749 238.365 244.713 247.974 248.086 252.225L251.551 222.149C252.549 241.22 249.657 253.841 248.086 257.768Z" fill="#FF9E53"/>
<path d="M192.093 261.926C191.983 260.374 174.954 234.669 166.453 222.011C172.773 228.109 186.919 248.02 193.202 257.214C200.52 249.563 207.986 245.711 210.804 244.74C207.367 245.96 196.898 256.706 192.093 261.926Z" fill="#FF9E53"/>
<path d="M148.34 293.264C147.01 294.146 141.503 331.042 138.916 349.38H143.767C145.846 330.307 149.671 292.382 148.34 293.264Z" fill="#FF9E53"/>
<path d="M187.104 115.292L174.625 142.375H170.438C169.107 136.388 164.19 133.494 161.88 133.032C153.01 131.923 150.053 138.483 149.683 141.902C145.433 138.76 138.54 125.215 144.971 96.1656C153.01 59.8537 212.051 38.7872 253.907 65.1203C287.392 86.1867 274.696 113.444 264.163 124.439L257.51 116.955L250.304 124.439L242.819 116.955L233.395 124.439L224.802 116.955L213.714 124.439L204.567 115.292L191.539 124.439L187.104 115.292Z" fill="#FF770F"/>
<circle cx="340.035" cy="130.07" r="45.633" fill="#FF9E53"/>
<path d="M321.866 104.801V154.359" stroke="#FFEFE3" stroke-width="5.88813" stroke-linecap="round"/>
<path d="M328.858 139.271L329.165 107.255C332.6 104.433 340.512 103.881 345.909 107.254C350.738 110.272 359.264 109.854 364.726 109.205C365.499 109.114 366.082 109.906 365.753 110.612L359.771 123.447L365.152 136.9C365.308 137.291 365.201 137.74 364.862 137.989C361.937 140.129 355.119 142.85 347.136 139.271C338.598 135.444 331.393 137.676 328.858 139.271Z" fill="#FFEFE3"/>
<path d="M288.902 312.077C287.602 311.377 288.944 324.118 289.777 330.577H294.402C293.111 324.702 290.202 312.777 288.902 312.077Z" fill="#FF9E53"/>
</g>
<defs>
<clipPath id="clip0_302_657">
<rect width="450" height="330" fill="white" transform="translate(0.5)"/>
</clipPath>
</defs>
</svg>
