<svg width="451" height="330" viewBox="0 0 451 330" fill="none" xmlns="http://www.w3.org/2000/svg">
<g clip-path="url(#clip0_274_3548)">
<rect width="450" height="330" transform="translate(0.733887)" fill="white"/>
<circle cx="399.162" cy="223.312" r="19.5718" fill="#FFEFE3"/>
<circle cx="43.6177" cy="151.575" r="14.1162" fill="#FFEFE3"/>
<path d="M142.913 83.9312C142.913 83.9312 194.17 116.978 272.094 55.1862C341.298 0.30949 397.803 86.8925 398.199 128.355C398.712 182.067 328.995 225.042 362.828 260.321C396.661 295.599 295.732 353.855 241.336 303.439C173.67 240.722 155.338 291.679 116.769 291.679C89.0878 291.679 32.2546 233.241 70.6335 189.765C102.929 153.181 85.3161 141.039 76.7848 128.355C64.482 110.063 93.7015 60.4126 142.913 83.9312Z" fill="#FFEFE3"/>
<path d="M279.245 188.14C274.686 202.725 251.063 203.101 239.822 201.465V194.836L275.893 156.519C278.91 160.982 283.804 173.556 279.245 188.14Z" fill="#FF770F"/>
<path d="M161.861 129.073C169.286 116.556 178.125 122.62 181.616 127.216C226.802 103.457 238.982 82.9327 239.424 75.6406H245.39C270.184 77.6294 271.245 117.538 273.499 124.83C275.302 130.664 275.841 149.182 275.885 157.712C272.703 186.032 250.605 194.968 239.954 195.896V200.935C239.53 207.511 232.264 225.154 228.685 233.153H219.138C205.561 227.956 188.467 207.21 181.616 197.487C189.359 189.532 184.843 166.683 181.616 156.253C174.854 155.723 152.58 144.718 161.861 129.073Z" fill="#FFB983"/>
<ellipse cx="221.735" cy="136.181" rx="4.65145" ry="8.0049" fill="#FF770F"/>
<ellipse cx="258.837" cy="136.181" rx="4.65145" ry="8.0049" fill="#FF770F"/>
<path d="M210.785 119.526C213.437 117.228 220.862 113.427 229.347 116.609" stroke="#FF770F" stroke-width="4.24276" stroke-linecap="round"/>
<path d="M253.478 116.477C256.13 115.239 262.759 113.852 268.063 118.2" stroke="#FF770F" stroke-width="4.24276" stroke-linecap="round"/>
<path d="M243.15 158.119C251.834 157.446 251.43 151.791 249.018 146.955C248.469 145.853 249.57 144.738 250.375 145.671C254.793 150.791 257.539 157.811 251.556 159.435C247.804 160.453 243.013 160.302 242.05 159.156C241.619 158.642 242.482 158.171 243.15 158.119Z" fill="#FF770F"/>
<path d="M222.718 165.269C227.226 168.981 239.212 175.133 251.092 170.042" stroke="#FF770F" stroke-width="4.24276" stroke-linecap="round"/>
<path d="M202.17 184.142C218.143 194.055 235.504 196.644 240.717 195.83L240.286 200.57L239.291 205.012C216.113 204.193 203.98 193.498 199.792 185.983C198.89 184.365 200.597 183.166 202.17 184.142Z" fill="#FF9E53"/>
<path d="M166.369 208.757C175.252 205.244 180.357 199.742 181.948 197.09C191.693 212.868 211.78 226.855 218.939 232.888C223.023 231.774 226.353 232.241 227.855 232.705C232.331 225.264 238.341 208.934 240.021 201.399C242.778 200.975 250.075 207.255 252.815 210.083C277.847 208.598 303.198 250.655 312.744 271.868L301.607 331.532L99.2803 332.858C102.904 315.622 111.531 275.21 117.047 251.45C123.941 221.751 155.663 212.992 166.369 208.757Z" fill="#FF770F"/>
<circle cx="224.773" cy="242.965" r="10.408" stroke="#FF9E53" stroke-width="3.18207"/>
<path d="M215.691 244.424V247.075C193.812 249.875 177.838 226.885 172.178 214.251C190.614 240.495 208.868 245.301 215.691 244.424Z" fill="#FF9E53"/>
<path d="M250.627 216.447C249.779 235.858 240.286 244.821 235.645 246.412V242.898C242.964 242.368 248.683 224.358 250.627 216.447Z" fill="#FF9E53"/>
<path d="M216.752 291.492C203.387 272.187 211.183 256.135 216.752 250.522C223.01 254.235 228.552 253.395 230.541 252.511C234.041 275.528 222.806 288.089 216.752 291.492Z" stroke="#FF9E53" stroke-width="3.18207"/>
<path d="M257.11 283.616C234.009 279.416 232.397 259.936 230.673 252.113C235.711 248.666 234.4 247.117 235.181 245.086C253.932 258.886 258.985 276.928 257.11 283.616Z" stroke="#FF9E53" stroke-width="3.18207"/>
<path d="M167.894 293.745C169.147 294.652 167.204 323.088 167.894 332.962L161.861 332.962C161.431 328.612 164.503 306.949 165.312 303.627C166.122 300.305 165.971 292.353 167.894 293.745Z" fill="#FF9E53"/>
<path d="M161.331 131.326C167.058 116.901 176.987 122.874 181.583 127.382C232.072 109.35 243.799 86.0702 243.004 76.9659C260.399 76.9659 269.83 107.129 272.836 122.244C288.216 107.306 304.153 72.8821 241.148 54.4261C162.391 31.3561 149.663 98.7099 149.663 104.544C149.663 110.377 146.746 136.099 134.813 162.616C122.881 189.134 152.646 215.386 174.656 203.984C192.263 194.862 186.688 168.362 181.65 156.252C172.722 153.954 155.603 145.752 161.331 131.326Z" fill="#FF770F"/>
<rect x="297.018" y="216.447" width="77.4304" height="112.964" rx="10.6069" transform="rotate(13.6288 297.018 216.447)" fill="#FF9E53"/>
<path d="M345.427 335.974C335.88 334.17 331.947 326.383 332.433 322.848L333.958 319.997C321.442 313.845 325.914 306.915 329.715 304.219C323.987 294.461 331.395 291.756 335.814 291.624L333.958 286.983C333.322 277.331 350.399 278.1 359.017 279.691C366.969 279.779 371.609 287.878 373.167 294.285C373.736 296.624 373.543 299.055 373.166 301.432L372.408 306.208L370.287 316.019L367.866 324.369C367.712 324.9 367.507 325.415 367.252 325.907L364.897 330.458C364.118 331.963 363.186 333.435 361.735 334.309C358.539 336.234 353.036 337.411 345.427 335.974Z" fill="#FFB983"/>
<path d="M347.051 334.714C339.095 333.565 326.73 329.278 333.864 319.732C330.498 318.627 324.12 315.078 325.537 309.722C326.953 304.365 329.93 303.777 331.241 304.153C329.602 303.468 326.625 300.931 327.832 296.264C329.038 291.597 334.323 291.535 336.815 292.088C335.438 291.115 332.998 288.336 334.257 284.995C335.831 280.818 340.417 277.237 361.006 281.48" stroke="#FF770F" stroke-width="3.18207" stroke-linecap="round"/>
<path d="M336.875 292.021L357.558 295.866" stroke="#FF770F" stroke-width="3.18207" stroke-linecap="round"/>
<path d="M330.047 303.953L355.105 310.052" stroke="#FF770F" stroke-width="3.18207" stroke-linecap="round"/>
<path d="M335.284 320.195L348.476 323.775" stroke="#FF770F" stroke-width="3.18207" stroke-linecap="round"/>
<path d="M304.259 242.965L306.91 252.776L324.147 242.965" stroke="#FFEFE3" stroke-width="4" stroke-linecap="round" stroke-linejoin="round"/>
<path d="M297.099 274.101L299.751 283.912L316.987 274.101" stroke="#FFEFE3" stroke-width="4" stroke-linecap="round" stroke-linejoin="round"/>
<path d="M289.939 303.827L292.591 313.639L309.827 303.827" stroke="#FFEFE3" stroke-width="4" stroke-linecap="round" stroke-linejoin="round"/>
<path d="M325.738 256.223L355.895 264.303" stroke="#FFEFE3" stroke-width="4" stroke-linecap="round" stroke-linejoin="round"/>
<path d="M341.221 247.689L360.205 252.777" stroke="#FFEFE3" stroke-width="4" stroke-linecap="round" stroke-linejoin="round"/>
<path d="M300.944 119.527L303.261 134.284L315.194 137.15L303.261 140.017L300.944 154.773L298.626 140.017L286.694 137.15L298.626 134.284L300.944 119.527Z" fill="#FF9E53"/>
</g>
<defs>
<clipPath id="clip0_274_3548">
<rect width="450" height="330" fill="white" transform="translate(0.733887)"/>
</clipPath>
</defs>
</svg>
