<svg width="451" height="330" viewBox="0 0 451 330" fill="none" xmlns="http://www.w3.org/2000/svg">
<g clip-path="url(#clip0_302_631)">
<rect width="450" height="330" transform="translate(0.5)" fill="white"/>
<path d="M288.077 48.2835C288.077 48.2835 238.97 103.2 160.398 70.4438C81.8258 37.6878 3.25472 126.323 70.9129 180.276C138.571 234.229 72.3625 263.876 118.327 296.941C170.57 334.523 216.053 258.315 257.521 275.657C349.043 313.931 396 290 403.5 250C403.5 173.5 340.458 171.605 366.648 131.14C392.839 90.6751 335.036 6.53883 288.077 48.2835Z" fill="#FFEFE3"/>
<circle cx="61.2249" cy="227.641" r="19.8596" fill="#FFEFE3"/>
<circle cx="403.725" cy="139.094" r="12.3955" fill="#FFEFE3"/>
<path d="M222.664 213.74C195.099 206.427 188.208 169.127 188.208 151.391C186.333 109.762 205.554 86.6978 215.398 80.3691L239.072 85.5258L279.154 122.092C281.029 142.343 287.592 145.844 290.639 145.062C301.89 130.624 308.141 140.609 309.86 147.406C310.235 169.533 295.483 175.221 288.061 175.299C274.185 209.24 287.359 220.703 294.625 221.875C285.812 232.751 251.339 257.494 236.259 268.823C224.071 255.884 218.055 235.305 216.57 226.632L222.664 223.585V213.74Z" fill="#FFB983"/>
<path d="M239.658 128.78C242.315 126.631 250.487 123.436 261.926 127.842" stroke="#FF770F" stroke-width="5.62549" stroke-linecap="round"/>
<path d="M198.522 125.138C202.506 123.849 208.952 122.794 216.57 127.248" stroke="#FF770F" stroke-width="5.62549" stroke-linecap="round"/>
<ellipse cx="207.871" cy="146.71" rx="4.57891" ry="7.88004" fill="#FF770F"/>
<ellipse cx="247.753" cy="146.71" rx="4.57891" ry="7.88004" fill="#FF770F"/>
<path d="M223.016 140.374L214.084 166.082C213.662 167.297 213.881 168.665 214.903 169.446C217.385 171.34 222.234 173.558 229.462 173.189" stroke="#FF770F" stroke-width="3.75033" stroke-linecap="round"/>
<path d="M263.332 205.067C248.893 214.63 230.282 214.912 222.782 213.857V223.936C249.972 234.015 281.381 193.113 263.332 205.067Z" fill="#FF9E53"/>
<path d="M215.515 185.26C219.422 187.799 231.314 190.909 247.628 183.033" stroke="#FF770F" stroke-width="3.75033" stroke-linecap="round"/>
<path d="M187.74 138.499C166.363 102.496 200.084 72.087 219.617 61.3829C243.994 50.6008 297.812 44.5065 318.063 106.387C338.315 168.267 326.502 216.24 318.063 232.492C351.441 237.367 358.223 303.279 357.442 330H137.891C138.985 318.28 151.924 280.777 160.55 260.15C169.175 239.523 189.927 233.117 199.225 232.492C195.662 221.241 200.709 206.552 203.678 200.614C209.304 208.115 219.617 212.334 224.071 213.506L222.899 223.35L217.742 226.397C218.305 240.086 230.321 260.541 236.259 269.057L292.749 221.944C271.559 215.381 280.951 188.269 288.295 175.534C311.266 170.611 312.672 141.781 303.765 138.499C296.64 135.874 291.733 142.718 290.17 146.468C282.482 145.906 280.091 135.139 279.857 129.826C237.478 119.701 235.165 97.4799 239.306 87.6352C231.993 94.1983 232.353 116.466 233.447 126.779C214.507 116.466 216.336 94.3546 219.617 84.5881C203.116 90.4011 191.49 122.951 187.74 138.499Z" fill="#FF770F"/>
<path d="M308.109 287.927C305.577 291.021 303.929 317.265 303.421 330.001H309.867C309.023 327.188 308.343 300.779 308.109 287.927Z" fill="#FF9E53"/>
<path d="M180.005 303.631C177.979 305.57 176.66 322.018 176.254 330H181.411C180.736 328.237 180.192 311.686 180.005 303.631Z" fill="#FF9E53"/>
<ellipse cx="234.076" cy="284.162" rx="2.89664" ry="4.45638" transform="rotate(14.5593 234.076 284.162)" fill="#FF9E53"/>
<ellipse cx="232.028" cy="298.589" rx="2.89664" ry="4.45638" transform="rotate(14.5593 232.028 298.589)" fill="#FF9E53"/>
<path d="M92.8691 102.877C80.5949 102.877 74.4577 102.877 69.7695 105.266C65.6456 107.367 62.2926 110.72 60.1914 114.844C57.8027 119.532 57.8027 125.669 57.8027 137.943V144.519C57.8027 156.793 57.8028 162.93 60.1914 167.618C62.2926 171.742 65.6457 175.095 69.7695 177.196C74.4577 179.585 80.5948 179.585 92.8691 179.585L134.511 179.586L147.074 192.148C150.526 195.6 156.428 193.156 156.428 188.274V137.943C156.428 125.669 156.428 119.532 154.039 114.844C151.938 110.72 148.585 107.367 144.461 105.266C139.773 102.877 133.636 102.877 121.361 102.877H92.8691ZM123.553 146.711C126.579 146.711 129.032 149.164 129.032 152.19C129.032 155.216 126.579 157.669 123.553 157.669H107.115C104.089 157.669 101.636 155.216 101.636 152.19C101.636 149.259 103.938 146.865 106.833 146.718L107.115 146.711H123.553ZM123.553 124.794C126.579 124.794 129.032 127.247 129.032 130.273C129.032 133.299 126.579 135.753 123.553 135.753H90.6777L90.3955 135.745C87.5008 135.598 85.1985 133.205 85.1982 130.273C85.1982 127.342 87.5006 124.949 90.3955 124.802L90.6777 124.794H123.553Z" fill="#FF9E53"/>
</g>
<defs>
<clipPath id="clip0_302_631">
<rect width="450" height="330" fill="white" transform="translate(0.5)"/>
</clipPath>
</defs>
</svg>
