<svg width="451" height="330" viewBox="0 0 451 330" fill="none" xmlns="http://www.w3.org/2000/svg">
<g clip-path="url(#clip0_274_3488)">
<rect width="450" height="330" transform="translate(0.733887)" fill="white"/>
<path d="M288.311 48.2835C288.311 48.2835 239.204 103.2 160.632 70.4438C82.0597 37.6878 3.48861 126.323 71.1468 180.276C138.805 234.229 72.5964 263.876 118.561 296.941C170.804 334.523 216.286 258.315 257.755 275.657C349.277 313.931 396.234 290 403.734 250C403.734 173.5 340.692 171.605 366.882 131.14C393.073 90.6751 335.27 6.53883 288.311 48.2835Z" fill="#FFEFE3"/>
<circle cx="61.4587" cy="227.641" r="19.8596" fill="#FFEFE3"/>
<circle cx="403.958" cy="139.094" r="12.3955" fill="#FFEFE3"/>
<path d="M143.782 146.473C153.441 136.289 161.456 145.03 164.256 150.673C173.705 139.649 172.13 113.794 170.162 102.245C175.621 96.4703 187.748 97.214 193.129 98.3077C219.483 105.972 239.02 97.914 245.495 92.9268C254.419 94.8954 258.75 111.169 260.325 161.041C261.585 200.939 241.689 214.501 231.583 216.294L230.796 220.625C225.336 230.81 214.959 237.818 210.453 240.049C188.089 233.225 172.787 219.794 167.931 213.932C170.87 203.223 166.706 186.721 164.256 179.809C152.181 183.221 131.708 159.204 143.782 146.473Z" fill="#FFB983"/>
<path d="M156.775 93.1889C137.351 106.313 142.47 132.605 147.457 144.111C155.856 140.226 162.506 147.304 164.781 151.329C174.545 132.64 173.049 111.081 171.08 102.638C178.955 97.3885 189.236 98.3509 193.392 99.4884C221.452 107.592 240.169 98.6651 246.02 93.1889C255.784 99.3836 258.094 122.893 258.356 133.743C269.591 108.334 257.569 87.8077 249.826 80.8519C253.71 58.2782 237.27 53.9472 228.564 54.6034C231.714 61.428 227.252 63.3093 224.627 63.3969C177.695 61.402 159.837 82.427 156.775 93.1889Z" fill="#FF770F"/>
<path d="M189.192 124.687C192.21 122.456 200.321 118.912 208.616 122.587" stroke="#FF770F" stroke-width="5.24969" stroke-linecap="round"/>
<path d="M234.077 121.537C237.489 119.7 243.264 117.338 250.219 121.537" stroke="#FF770F" stroke-width="5.24969" stroke-linecap="round"/>
<ellipse cx="200.687" cy="146.007" rx="4.88374" ry="8.40465" fill="#FF770F"/>
<ellipse cx="239.642" cy="146.007" rx="4.88374" ry="8.40465" fill="#FF770F"/>
<path d="M225.152 147.785C232.502 157.716 242.424 176.763 223.315 173.509" stroke="#FF770F" stroke-width="3" stroke-linecap="round"/>
<path d="M230.565 182.095C217.846 183.056 207.995 180.279 202.876 177.952C201.606 177.375 200.037 177.999 199.874 179.385C199.16 185.461 201.111 194.511 213.275 196.674C225.578 198.861 230.992 190.593 232.694 184.453C233.057 183.143 231.921 181.993 230.565 182.095Z" fill="#FF770F"/>
<path d="M188.094 209.002C204.573 217.983 224.171 218.122 231.583 216.491L230.73 220.756L227.974 225.153C205.222 227.159 191.845 217.166 186.873 210.204C186.274 209.367 187.19 208.509 188.094 209.002Z" fill="#FF9E53"/>
<path d="M158.087 223.25L167.931 213.669C179.9 227.003 201.179 236.636 210.322 239.786C218.511 235.166 227.514 224.606 230.992 219.903C231.465 222.58 237.27 225.524 240.114 226.662C294.291 227.292 312.909 315.819 315.447 360.004H295.235H73.8779C77.4652 341.98 86.5297 298.95 94.0892 271.022C101.649 243.093 141.595 227.537 158.087 223.25Z" fill="#FF770F"/>
<path d="M353.245 256.95C336.866 259.916 320.084 249.889 314.134 245.299C304.86 258.716 285.457 294.033 278.947 322.632C270.81 358.381 303.358 365.266 320.157 358.911C333.597 353.826 347.82 288.903 353.245 256.95Z" fill="#FF770F"/>
<path d="M193.785 261.966C170.477 250.522 160.887 234.974 159.006 228.631C173.285 247.95 188.142 256.454 193.785 258.292L211.372 243.592L227.777 256.192C233.867 247.792 236.614 234.318 237.226 228.631C238.381 245.325 231.933 256.935 228.564 260.654L211.372 246.611L193.785 261.966Z" fill="#FF9E53"/>
<path d="M206.516 268.922L199.822 256.191L211.897 245.561L224.365 256.191L218.196 267.478L233.289 339.399L215.309 353.442L197.591 339.399L206.516 268.922Z" fill="#FF9E53"/>
<path d="M140.034 301.304C141.35 302.257 137.528 349.637 138.252 360.004L131.769 360.004C131.318 355.436 134.692 331.7 135.542 328.212C136.392 324.725 138.016 299.843 140.034 301.304Z" fill="#FF9E53"/>
<path d="M271.193 311.354C269.91 312.106 275.022 351.44 274.588 360.004L281.042 360.183C281.365 356.414 277.351 336.668 276.408 333.757C275.466 330.846 273.163 310.2 271.193 311.354Z" fill="#FF9E53"/>
<path d="M277.787 330.999C276.543 331.498 279.292 353.722 279.224 360.003L285.642 360.409C285.803 357.649 281.068 343.467 281.068 340.711C281.068 338.286 279.693 330.233 277.787 330.999Z" fill="#FF9E53"/>
<path d="M315.316 246.479L317.415 238.342C315.141 235.368 310.197 227.213 308.622 218.394C306.654 207.369 299.042 190.702 306.654 191.751C312.743 192.591 318.64 200.151 320.828 203.826C321.484 190.439 324.791 164.033 332.771 165.503C339.577 166.757 339.101 180.002 337.565 189.328C340.125 177.272 345.407 160.113 351.538 163.272C357.195 166.186 354.084 180.082 350.584 190.301C354.666 180.284 361.019 168.427 365.319 172.984C370.569 178.549 364.006 195.164 360.069 202.776C363.219 196.783 370.437 185.688 374.112 189.258C377.787 192.828 372.056 207.719 368.731 214.719C366.981 219.006 365.319 227.125 363.109 232.375C361.357 236.537 355.17 242.892 352.72 245.167L351.538 256.585C342.876 259.429 324.45 261.179 315.316 246.479Z" fill="#FFB983" stroke="#FF770F" stroke-width="3.14981"/>
<path d="M320.762 203.563C324.371 213.472 331.983 211.307 335.133 222.594" stroke="#FF770F" stroke-width="3.14981" stroke-linecap="round"/>
<path d="M291.757 133L289.234 125L334.143 100L344.234 119L291.757 133Z" fill="#FF9E53"/>
<path d="M288.302 113.227L284.397 109.586L303.131 76.6763L314.954 83.9889L288.302 113.227Z" fill="#FF9E53"/>
</g>
<defs>
<clipPath id="clip0_274_3488">
<rect width="450" height="330" fill="white" transform="translate(0.733887)"/>
</clipPath>
</defs>
</svg>
