<svg width="451" height="330" viewBox="0 0 451 330" fill="none" xmlns="http://www.w3.org/2000/svg">
<g clip-path="url(#clip0_191_3411)">
<rect width="450" height="330" transform="translate(0.5)" fill="white"/>
<path d="M332.943 75.683C332.54 77.3767 331.784 78.9824 331.071 80.5709C326.549 90.6567 314.037 132.161 387.5 176.5C470.796 219.74 381.704 290.7 333.516 302.754C271.093 318.369 201.516 271.331 169.893 310.024C138.271 348.716 42.1567 279.499 85.6583 219.071C139.772 143.901 108.297 132.743 97.4997 99.9999C89.7507 76.5004 108.899 21.7335 170.286 42.0277C221.942 59.1044 231.155 40.7202 243.542 29.8937C262.17 5.43306 344.32 27.8172 332.943 75.683Z" fill="#FFEFE3"/>
<circle cx="379.505" cy="87.5625" r="23.9951" fill="#FFEFE3"/>
<circle cx="64.8838" cy="177.299" r="14.1162" fill="#FFEFE3"/>
<path d="M269.103 199.549L297.27 172.521C298.967 170.891 301.571 170.666 303.523 171.98L312.989 178.351C315.016 179.716 317.732 179.415 319.412 177.641L355.425 139.595" stroke="#FF9E53" stroke-width="7" stroke-linecap="round"/>
<rect x="278.206" y="219.64" width="22.9146" height="31.076" rx="3" fill="#FF9E53"/>
<rect x="314.304" y="199.55" width="22.9146" height="51.1655" rx="3" fill="#FF9E53"/>
<rect x="350.402" y="177.891" width="22.9146" height="72.8246" rx="3" fill="#FF9E53"/>
<path d="M371.753 122.253C373.605 122.096 375.152 123.643 374.995 125.495L372.84 150.974C372.625 153.518 369.534 154.648 367.73 152.843L344.405 129.519C342.6 127.714 343.73 124.623 346.274 124.408L371.753 122.253Z" fill="#FF9E53"/>
<path d="M150.862 155.841C160.762 148.641 171.404 158.841 175.487 164.841C170.862 151.799 168.862 121.916 197.862 106.716C226.862 91.5162 263.612 104.05 278.362 112.216C281.904 130.966 289.087 173.816 289.487 195.216C289.887 216.616 270.737 226.133 261.112 228.216C269.912 242.016 274.654 303.466 274.987 328.966H233.737C226.737 286.966 196.362 233.216 181.987 214.466V205.841L175.487 194.466C146.237 193.091 138.487 164.841 150.862 155.841Z" fill="#FFB983"/>
<path d="M175.612 99.5906C151.212 109.791 153.008 139.716 157.05 153.466C164.35 152.466 172.529 161.257 175.612 165.716C182.654 154.716 196.962 131.991 197.862 129.091C198.762 126.191 196.237 115.466 194.862 110.466C214.262 119.766 225.779 111.341 229.112 105.966C229.904 107.299 234.287 110.766 245.487 113.966C256.687 117.166 255.237 109.966 253.112 105.966C273.312 113.766 280.029 113.132 280.862 111.841C278.962 102.541 272.237 94.8825 269.112 92.2158C273.237 90.5075 281.587 85.3908 281.987 78.5908C282.387 71.7908 262.904 75.7575 253.112 78.5908C255.987 77.3408 261.212 73.7908 259.112 69.5908C257.012 65.3908 235.904 73.8408 225.612 78.5908C228.812 73.5908 230.362 68.0908 230.737 65.9658C227.737 59.6658 209.071 74.6742 200.112 82.9658C201.512 66.6658 199.529 63.424 198.362 63.8406C190.162 60.6406 179.779 86.3406 175.612 99.5906Z" fill="#FF770F"/>
<path d="M166.113 228.216C167.713 224.816 177.446 216.632 182.113 212.966C210.913 245.766 229.446 299.466 235.112 322.216L273.113 329.12C277.513 307.52 267.446 252.549 262.987 231.216L267.362 235.216C316.962 243.216 343.739 303.299 350.905 330.966L111.907 334.466C86.4068 267.966 134.446 238.549 166.113 228.216Z" fill="#FF770F"/>
<path d="M227.753 250.716L213.112 260.216C215.912 262.716 226.071 258.403 230.612 256.028L227.753 250.716Z" fill="#FF770F"/>
<path d="M211.363 220.466C229.263 229.066 252.228 229.237 261.062 228.153L264.237 232.591L267.612 255.216C256.654 250.299 231.663 238.391 219.363 230.091C207.063 221.791 208.904 220.216 211.363 220.466Z" fill="#FF9E53"/>
<path d="M213.737 140.716C207.187 140.816 209.05 137.507 210.8 135.841C221.362 128.278 231.237 130.278 237.487 135.841C241.217 139.16 240.148 140.97 238.352 141.805C237.147 142.366 235.755 142.198 234.451 141.943C223.522 139.809 221.48 140.598 213.737 140.716Z" fill="#FF770F"/>
<path d="M259.518 139.429C253.213 140.161 255.421 134.872 257.828 131.392C258.174 130.893 258.581 130.441 259.051 130.058C262.989 126.852 269.641 124.556 275.237 128.091C277.932 129.792 278.394 131.347 277.981 132.537C277.383 134.263 275.138 134.415 273.328 134.655C269.404 135.174 265.172 136.978 262.52 138.369C261.573 138.866 260.58 139.306 259.518 139.429Z" fill="#FF770F"/>
<ellipse cx="223.669" cy="154.247" rx="4.26855" ry="6.84375" transform="rotate(-8.94556 223.669 154.247)" fill="#FF770F"/>
<ellipse cx="267.661" cy="150.622" rx="4.26855" ry="6.84375" transform="rotate(-8.94556 267.661 150.622)" fill="#FF770F"/>
<path d="M260.737 177.716C265.994 177.09 258.238 158.466 255.112 148.403C261.112 158.612 271.3 179.778 262.487 182.841C251.652 186.606 241.237 178.341 241.487 175.341C241.737 172.341 253.871 178.534 260.737 177.716Z" fill="#FF770F"/>
<path d="M221.862 184.216C227.237 189.799 242.912 199.541 262.612 193.841" stroke="#FF770F" stroke-width="5" stroke-linecap="round"/>
<path d="M237.112 272.248L227.519 251.103L238.769 241.028L253.968 248.841L250.862 269.767C261.487 284.186 269.821 316.409 273.237 330.33L234.487 330.966L233.112 320.669L231.655 310.716L237.112 272.248Z" fill="#FF9E53"/>
</g>
<defs>
<clipPath id="clip0_191_3411">
<rect width="450" height="330" fill="white" transform="translate(0.5)"/>
</clipPath>
</defs>
</svg>
