<svg width="451" height="330" viewBox="0 0 451 330" fill="none" xmlns="http://www.w3.org/2000/svg">
<g clip-path="url(#clip0_191_3385)">
<rect width="450" height="330" transform="translate(0.5)" fill="white"/>
<circle cx="70.2837" cy="81.8198" r="19.5718" fill="#FFEFE3"/>
<path d="M209.203 53.2181C209.203 53.2181 236.888 107.351 336.933 83.4025C425.782 62.1346 451.126 170.19 409.254 208.868C364.453 250.251 300.426 265.731 311.735 314.231C323.044 362.731 183.441 383 162 311C119.862 237.347 98.2372 283.095 54.0001 243C29.6091 220.892 35.2848 145.607 91.3056 121.443C138.446 101.109 129.339 81.7625 128.448 65.941C127.162 43.1229 178.375 9.03083 209.203 53.2181Z" fill="#FFEFE3"/>
<path d="M393.515 180.505C393.723 180.745 393.922 180.998 394.106 181.265C396.769 185.131 395.794 190.424 391.928 193.087C388.062 195.75 382.769 194.775 380.106 190.909C379.922 190.642 379.756 190.366 379.606 190.087L362.111 161.26L372.817 153.885L393.515 180.505Z" fill="#FF770F"/>
<path d="M122.196 278.16C128.196 254.36 164.445 236.577 181.82 230.66C212.72 262.06 235.779 278.577 243.446 282.91C254.646 269.71 256.113 246.743 255.446 236.91C264.279 239.827 290.796 244.76 305.196 254.16C323.196 265.91 343.018 303.481 343.018 315.114C343.018 325.614 350.518 339.114 321.768 339.114C265.434 338.947 134.995 338.714 122.195 339.114C109.395 339.514 113.612 316.993 114.196 311.41C114.362 310.243 116.196 301.96 122.196 278.16Z" fill="#FF770F"/>
<path d="M190.571 200.785L185.821 185.16C158.446 170.785 165.312 163.836 164.321 154.91C163.383 146.472 181.321 139.66 183.446 150.535C185.146 159.235 189.321 157.743 191.196 155.91C192.862 151.368 210.421 135.085 232.321 122.285C254.221 109.485 257.196 96.7847 260.321 90.0347C266.071 103.535 285.55 126.868 287.883 137.285C303.683 96.6847 276.279 76.3263 260.321 71.2846C221.721 50.9846 186.987 69.5763 174.446 81.4096C138.846 118.01 155.612 163.41 168.446 181.535C145.071 182.785 141.946 211.66 140.196 217.66C138.796 222.46 130.779 225.576 126.946 226.535C127.196 238.535 153.571 246.035 169.946 231.535C183.046 219.935 183.654 204.035 182.321 197.535C185.921 201.235 189.321 201.243 190.571 200.785Z" fill="#FF770F"/>
<path d="M238.445 115.66C250.845 110.86 258.112 95.8268 260.195 88.9102C260.612 91.2018 266.008 96.5352 275.696 104.91C285.936 113.763 289.029 138.535 288.571 150.785C287.071 154.098 289.821 188.16 279.571 208.41C269.321 228.66 259.946 223.41 257.071 227.535C254.771 230.835 256.112 237.66 257.071 240.66C260.25 256.559 251.943 274.645 246.525 283.158C245.863 284.199 244.732 284.863 243.518 284.647C229.438 282.145 196.141 248.478 180.571 231.16C182.446 229.452 186.771 223.235 189.071 212.035C191.371 200.835 186.945 189.535 184.445 185.285C156.57 174.66 161.945 152.91 166.695 148.16C171.445 143.41 181.695 143.16 184.445 150.785C186.645 156.885 189.695 155.743 190.945 154.41C197.445 142.41 222.945 121.66 238.445 115.66Z" fill="#FFB983"/>
<path d="M303.696 297.75C304.396 299.15 306.238 319.833 307.071 330H312.071C311.821 325.5 307.696 303.75 306.446 300.5C305.196 297.25 302.821 296 303.696 297.75Z" fill="#FF9E53"/>
<path d="M172.196 297.296L170.821 329.421H176.571C175.779 320.463 174.171 301.871 174.071 299.171C173.971 296.471 172.779 296.796 172.196 297.296Z" fill="#FF9E53"/>
<path d="M266.946 171.784C267.904 175.993 265.846 185.184 251.946 183.784" stroke="#FF770F" stroke-width="4" stroke-linecap="round" stroke-linejoin="round"/>
<path d="M266.109 145.668C273.628 145.318 287.036 144.677 288.54 144.534C289.109 144.481 289.865 144.672 290.662 144.981C291.35 145.248 291.778 145.921 291.801 146.658C291.915 150.278 292.023 156.991 291.759 162.285C291.462 168.235 287.631 170.681 285.753 171.16C284.639 171.41 280.54 172.01 273.061 172.41C263.713 172.91 263.342 169.472 260.989 157.285C259.448 149.302 261.432 147.073 263.849 146.093C264.565 145.802 265.337 145.704 266.109 145.668Z" stroke="#FF770F" stroke-width="4" stroke-linejoin="round"/>
<path d="M277.383 134.659C265.733 132.709 262.154 137.763 261.821 140.534C262.633 141.909 263.758 141.659 269.196 139.847C273.546 138.397 282.55 139.243 286.508 139.847C288.321 138.93 289.033 136.609 277.383 134.659Z" fill="#FF770F"/>
<path d="M224.456 134.606C237.736 132.894 241.816 137.331 242.196 139.764C241.269 140.971 239.987 140.752 233.789 139.16C228.831 137.887 218.567 138.63 214.055 139.16C211.989 138.355 211.177 136.318 224.456 134.606Z" fill="#FF770F"/>
<ellipse cx="230.006" cy="157.717" rx="4.26855" ry="6.84375" fill="#FF770F"/>
<ellipse cx="273.006" cy="157.717" rx="4.26855" ry="6.84375" fill="#FF770F"/>
<path d="M190.196 148.16C195.042 147.228 201.672 146.019 208.696 145.222M208.696 145.222C219.22 144.728 233.847 144.508 241.148 145.981C243.925 146.542 245.419 149.076 245.487 151.908C245.682 160.017 244.121 171.158 236.696 172.41C226.516 174.125 214.975 176.155 209.927 166.24C208.93 164.281 208.696 162.042 208.696 159.844V145.222Z" stroke="#FF770F" stroke-width="4" stroke-linejoin="round"/>
<path d="M246.196 150.222H259.633" stroke="#FF770F" stroke-width="4" stroke-linejoin="round"/>
<path d="M235.696 197.909C241.237 200.201 254.846 203.709 264.946 199.409" stroke="#FF770F" stroke-width="4" stroke-linecap="round" stroke-linejoin="round"/>
<path d="M254.811 228.852C232.947 229.797 218.154 224.239 211.907 220.345C211.166 219.883 210.195 220.449 210.433 221.289C213.818 233.225 236.572 242.104 244.464 241.284C250.476 240.66 254.309 234.203 255.781 230.098C256.011 229.457 255.49 228.823 254.811 228.852Z" fill="#FF9E53"/>
<path d="M386.946 129.561C386.946 149.581 370.716 165.811 350.696 165.811C330.675 165.811 314.446 149.581 314.446 129.561C314.446 109.54 330.675 93.3105 350.696 93.3105C370.716 93.3105 386.946 109.54 386.946 129.561ZM325.703 129.561C325.703 143.364 336.892 154.553 350.696 154.553C364.499 154.553 375.688 143.364 375.688 129.561C375.688 115.757 364.499 104.568 350.696 104.568C336.892 104.568 325.703 115.757 325.703 129.561Z" fill="#FFB983"/>
<circle cx="384.812" cy="270.772" r="14.1162" fill="#FFEFE3"/>
</g>
<defs>
<clipPath id="clip0_191_3385">
<rect width="450" height="330" fill="white" transform="translate(0.5)"/>
</clipPath>
</defs>
</svg>
