<svg width="451" height="330" viewBox="0 0 451 330" fill="none" xmlns="http://www.w3.org/2000/svg">
<g clip-path="url(#clip0_274_3516)">
<rect width="450" height="330" transform="translate(0.5)" fill="white"/>
<path d="M332.943 75.683C332.54 77.3767 331.784 78.9824 331.071 80.5709C326.549 90.6567 314.037 132.161 387.5 176.5C470.796 219.74 381.704 290.7 333.516 302.754C271.093 318.369 201.516 271.331 169.893 310.024C138.271 348.716 42.1567 279.499 85.6583 219.071C139.772 143.901 108.297 132.743 97.4997 99.9999C89.7506 76.5004 108.899 21.7335 170.286 42.0277C221.942 59.1044 231.155 40.7202 243.542 29.8937C262.17 5.43306 344.32 27.8172 332.943 75.683Z" fill="#FFEFE3"/>
<circle cx="379.505" cy="87.5625" r="23.9951" fill="#FFEFE3"/>
<circle cx="64.8838" cy="177.299" r="14.1162" fill="#FFEFE3"/>
<path d="M178.162 230.879C179.627 226.506 179.222 217.949 178.777 213.797H194.027C174.627 186.397 185.944 145.714 194.027 128.797C235.627 124.197 248.86 100.88 250.277 89.7969C266.966 100.297 273.384 120.409 274.808 130.846C274.984 132.137 274.89 133.442 274.715 134.733C274.136 139.022 273.67 146.903 275.027 155.047C276.627 164.647 276.694 176.714 276.527 181.547C276.527 209.947 252.694 222.714 240.777 225.547C240.068 233.203 240.574 238.044 241.225 240.66C241.585 242.106 241.997 243.602 241.901 245.089C240.547 265.929 233.994 281.32 230.777 286.547L178.62 233.41C177.977 232.756 177.871 231.748 178.162 230.879Z" fill="#FFB983"/>
<path d="M129.277 201.547C138.007 211.457 175.944 214.38 194.527 214.547C177.927 185.347 187.61 147.214 194.527 131.297C233.927 128.097 249.777 104.797 252.777 93.5471C262.933 100.014 269.206 113.085 272.54 123.402C274.139 128.349 273.454 137.862 273.636 143.059C273.791 147.478 274.341 153.698 275.527 162.297C278.727 185.497 269.826 204.359 265.242 211.025C304.242 203.025 288.777 158.797 285.777 145.547C283.377 134.947 279.277 113.797 277.527 104.547C271.096 81.9803 254.433 74.8652 246.136 74.1134C245.369 74.0438 244.627 73.8125 243.974 73.4028C235.558 68.1222 226.556 67.3599 219.34 67.3599C153.152 62.9849 129.61 131.547 123.027 167.547C121.944 174.381 120.027 191.047 129.277 201.547Z" fill="#FF770F"/>
<path d="M171.527 227.047C174.077 224.097 177.788 223.787 179.183 224.016C179.883 226.416 178.61 230.297 178.027 231.922L230.777 286.297C238.277 273.797 242.685 248.596 241.277 243.297C240.215 239.297 239.975 233.922 240.308 230.922C246.308 232.672 251.152 238.922 253.777 243.297C269.977 245.997 284.319 257.755 289.902 262.547C309.102 282.147 314.944 315.464 315.027 330.422C245.444 330.547 106.177 330.722 105.777 330.422C105.277 330.047 107.902 303.547 114.527 281.797C119.784 264.538 146.985 246.214 160.09 239.922C162.84 236.86 168.977 229.997 171.527 227.047Z" fill="#FF770F"/>
<ellipse cx="220.737" cy="152.892" rx="3.83533" ry="6.84375" fill="#FF770F"/>
<ellipse cx="262.612" cy="152.892" rx="3.83533" ry="6.84375" fill="#FF770F"/>
<path d="M231.968 135.421C218.236 129.217 207.782 133.991 202.719 138.521C201.363 139.734 200.876 142.38 202.635 141.915C202.871 141.853 203.094 141.764 203.277 141.673C214.675 134.298 227.512 137.704 231.371 139.001C232.081 139.239 232.602 139.388 233.083 138.812C234.036 137.67 233.324 136.034 231.968 135.421Z" fill="#FF770F"/>
<path d="M276.527 137.589C264.575 133.606 256.634 137.485 253.828 139.288C253.122 139.741 252.142 139.871 251.66 139.185C250.948 138.17 250.941 136.582 253.808 134.736C258.808 131.517 269.078 131.436 273.715 134.736C277.293 137.282 277.048 137.805 276.527 137.589Z" fill="#FF770F"/>
<path d="M255.615 171.512C248.88 164.492 247.355 152.241 247.152 148.673C249.802 155.865 255.477 166.861 258.057 171.375C258.322 171.84 258.477 172.363 258.427 172.897C257.819 179.431 249.948 182.215 244.479 182.293C243.449 182.308 243.469 181.283 244.466 181.026C251.693 179.161 255.492 175.41 256.099 172.874C256.219 172.373 255.972 171.884 255.615 171.512Z" fill="#FF770F"/>
<path d="M254.925 194.355C243.605 200.199 232.521 196.776 225.495 192.538C224.529 191.956 225.218 190.717 226.299 191.038C236.923 194.195 247.093 193.786 254.058 192.447C255.189 192.23 255.949 193.826 254.925 194.355Z" fill="#FF770F"/>
<path d="M207.591 216.096C218.311 224.619 233.89 225.978 240.902 225.454L240.183 235.235C220.97 237.709 210.415 226.006 206.005 217.2C205.526 216.244 206.754 215.431 207.591 216.096Z" fill="#FF9E53"/>
<path d="M158.027 241.735C159.569 247.944 165.252 264.948 177.152 273.548C182.465 274.048 194.915 274.898 202.215 274.298L177.715 271.798C173.694 268.173 163.702 254.248 160.402 240.548L158.027 241.735Z" fill="#FF9E53"/>
<path d="M264.512 269.483C262.601 261.541 257.058 249.7 254.402 244.548C256.402 249.248 260.402 262.84 262.152 269.048C253.252 268.348 248.027 269.84 246.527 270.673H263.554C264.186 270.673 264.66 270.097 264.512 269.483Z" fill="#FF9E53"/>
<path d="M160.152 330.548C161.052 321.748 157.36 304.298 155.402 296.673C159.902 301.473 162.777 321.256 163.652 330.548H160.152Z" fill="#FF9E53"/>
<path d="M293.902 330.548C294.802 321.748 291.11 304.298 289.152 296.673C293.652 301.473 296.527 321.256 297.402 330.548H293.902Z" fill="#FF9E53"/>
<path d="M361.961 176.943V237.392L315.027 217.12L315.251 156.89L361.961 176.943Z" fill="#FF9E53"/>
<path d="M361.962 176.979V237.428L408.667 217.856V157.082L361.962 176.979Z" fill="#FFB983"/>
<path d="M361.961 176.943L408.894 157.285L362.329 136.644L315.027 156.793L361.961 176.943Z" fill="#FFDABE"/>
<path d="M332.279 209.248C332.279 208.66 332.837 208.231 333.405 208.382L337.156 209.38C337.548 209.484 337.821 209.839 337.821 210.245V218.046C337.821 218.662 337.213 219.095 336.631 218.892L332.88 217.585C332.521 217.459 332.279 217.12 332.279 216.739V209.248Z" fill="#FF770F"/>
<path d="M340.718 202.491C340.718 201.903 341.275 201.474 341.844 201.626L345.594 202.623C345.987 202.727 346.26 203.082 346.26 203.488V221.289C346.26 221.906 345.652 222.338 345.069 222.135L341.319 220.828C340.959 220.702 340.718 220.363 340.718 219.982V202.491Z" fill="#FF770F"/>
<path d="M349.157 198.306C349.157 197.717 349.714 197.289 350.283 197.44L354.033 198.437C354.425 198.542 354.699 198.897 354.699 199.303V225.104C354.699 225.72 354.09 226.152 353.508 225.949L349.758 224.642C349.398 224.517 349.157 224.178 349.157 223.797V198.306Z" fill="#FF770F"/>
<path d="M331.961 174.037C329.902 173.628 327.891 173.994 326.235 175.078C324.579 176.162 323.369 177.905 322.788 180.041C322.208 182.177 322.289 184.59 323.02 186.91C323.751 189.231 325.091 191.333 326.836 192.895C328.581 194.457 330.635 195.394 332.686 195.563C334.737 195.732 336.671 195.124 338.194 193.831C339.716 192.538 340.744 190.632 341.121 188.403C341.497 186.173 341.201 183.743 340.279 181.483L331.843 184.732L331.961 174.037Z" fill="#FF770F"/>
<path d="M333.266 172.537C334.888 172.946 336.743 173.898 338.109 175.151C339.474 176.405 340.589 177.995 341.344 179.769L332.899 182.903L333.266 172.537Z" fill="#FF770F"/>
<ellipse cx="390.238" cy="182.063" rx="3.93727" ry="5.12112" fill="#FF770F"/>
<ellipse cx="380.539" cy="198.874" rx="3.93727" ry="5.12112" fill="#FF770F"/>
<ellipse cx="391.938" cy="207.217" rx="3.93727" ry="5.12112" fill="#FF770F"/>
<path d="M392.062 207.555L380.49 198.687L390.429 181.949" stroke="#FF770F" stroke-width="2.68692"/>
</g>
<defs>
<clipPath id="clip0_274_3516">
<rect width="450" height="330" fill="white" transform="translate(0.5)"/>
</clipPath>
</defs>
</svg>
