<svg width="451" height="330" viewBox="0 0 451 330" fill="none" xmlns="http://www.w3.org/2000/svg">
<g clip-path="url(#clip0_274_3626)">
<rect width="450" height="330" transform="translate(0.967773)" fill="white"/>
<path d="M307.435 80.3773C307.435 80.3773 260.278 135.294 184.827 102.538C109.376 69.7815 33.9263 158.416 98.8969 212.369C163.868 266.322 100.289 295.969 144.428 329.035C194.595 366.617 238.271 290.408 278.092 307.751C365.979 346.025 411.07 322.093 418.273 282.093C418.273 205.593 357.735 203.698 382.885 163.234C408.035 122.769 352.529 38.6326 307.435 80.3773Z" fill="#FFEFE3"/>
<circle cx="65.4002" cy="88.6245" r="19.5718" fill="#FFEFE3"/>
<circle cx="412.143" cy="177.766" r="14.1162" fill="#FFEFE3"/>
<path d="M121.168 179.587L121.168 256.873" stroke="#FF770F" stroke-width="8.12013" stroke-linecap="round"/>
<path d="M84.0475 177.992H158.289" stroke="#FF770F" stroke-width="8.12013" stroke-linecap="round"/>
<circle cx="121.168" cy="174.439" r="6.74261" fill="#FF9E53"/>
<path d="M88.5426 178.862L74.7673 216.853" stroke="#FF770F" stroke-width="4.64007" stroke-linecap="round"/>
<path d="M152.344 178.862L138.568 216.853" stroke="#FF770F" stroke-width="4.64007" stroke-linecap="round"/>
<path d="M88.5426 178.862L102.318 216.853" stroke="#FF770F" stroke-width="4.64007" stroke-linecap="round"/>
<path d="M152.344 178.862L166.119 216.853" stroke="#FF770F" stroke-width="4.64007" stroke-linecap="round"/>
<path d="M104.964 216.853C106.245 216.853 107.299 217.895 107.141 219.167C106.933 220.833 106.503 222.467 105.858 224.025C104.916 226.299 103.535 228.365 101.795 230.105C100.055 231.845 97.9885 233.226 95.7147 234.168C93.4408 235.11 91.0037 235.594 88.5426 235.594C86.0814 235.594 83.6443 235.11 81.3705 234.168C79.0967 233.226 77.0306 231.845 75.2903 230.105C73.55 228.365 72.1695 226.299 71.2276 224.025C70.5825 222.467 70.1518 220.833 69.9444 219.167C69.7862 217.895 70.8397 216.853 72.1211 216.853L88.5426 216.853H104.964Z" fill="#FF9E53"/>
<path d="M168.765 216.853C170.046 216.853 171.1 217.895 170.942 219.167C170.734 220.833 170.304 222.467 169.659 224.025C168.717 226.299 167.336 228.365 165.596 230.105C163.856 231.845 161.79 233.226 159.516 234.168C157.242 235.11 154.805 235.594 152.344 235.594C149.882 235.594 147.445 235.11 145.172 234.168C142.898 233.226 140.832 231.845 139.091 230.105C137.351 228.365 135.971 226.299 135.029 224.025C134.383 222.467 133.953 220.833 133.745 219.167C133.587 217.895 134.641 216.853 135.922 216.853L152.344 216.853H168.765Z" fill="#FF9E53"/>
<rect x="95.1765" y="254.553" width="51.9833" height="9.13515" rx="2.32004" fill="#FF9E53"/>
<rect x="104.511" y="247.737" width="33.3143" height="9.13515" rx="2.32004" fill="#FF9E53"/>
<path d="M209.353 242.491C214.196 241.373 222.083 233.487 225.187 229.917L228.68 240.279C237.995 237.298 275.679 213.287 293.066 202.265L302.085 218.396C303.499 220.926 306.137 222.498 309.011 222.875C362.028 229.822 379.871 311.944 382.135 351.935L173.493 349.141C173.337 347.123 174.145 334.61 178.616 300.706C184.204 258.326 203.299 243.888 209.353 242.491Z" fill="#FF770F"/>
<path d="M310.545 327.718C311.133 319.304 311.775 295.914 311.397 293.363C311.26 292.932 311.228 292.818 311.359 293.188C311.373 293.226 311.385 293.285 311.397 293.363C311.851 294.793 313.452 299.715 313.999 301.957C314.71 304.874 315.569 323.77 315.192 327.59L310.545 327.718Z" fill="#FF9E53"/>
<path d="M185.834 138.053C184.81 135.631 186.261 123.305 187.115 117.445L198.642 116.164L208.887 101.96L225.187 121.287L242.652 129.67L245.679 146.669H254.295C257.71 139.14 267.428 126.596 278.978 136.656C290.528 146.716 279.754 162.814 272.924 169.606C278.435 173.37 289.224 181.831 288.292 185.556C287.361 189.282 291.475 199.218 293.648 203.719C276.137 224.025 243.04 236.708 228.68 240.511C227.283 236.553 223.837 226.353 221.229 217.225C217.969 205.815 212.38 210.705 198.642 210.24C187.651 209.867 184.282 182.995 183.971 169.606C183.816 169.334 182.085 168.581 176.403 167.743C170.722 166.904 170.698 163.047 171.397 161.223L185.834 138.053Z" fill="#FFB983"/>
<path d="M205.862 158.062C193.472 161.637 191.921 144.618 192.904 132.82C193.091 130.575 194.258 128.466 196.28 127.471C201.831 124.739 206.309 126.395 208.709 128.28C209.5 128.902 209.986 129.814 210.274 130.778C214.345 144.429 211.434 152.754 208.675 156.261C207.972 157.154 206.954 157.747 205.862 158.062Z" stroke="#FF770F" stroke-width="3.72575"/>
<path d="M186.3 135.608L191.656 136.772M186.3 135.608V130.271C186.3 129.434 185.743 128.694 184.917 128.554C183.327 128.286 181.166 128.162 179.78 128.855C178.182 129.654 178.754 138.392 179.439 144.486C179.539 145.375 180.705 145.599 181.142 144.818L186.3 135.608Z" stroke="#FF770F" stroke-width="3.72575"/>
<path d="M212.962 136.307H242.303" stroke="#FF770F" stroke-width="3.72575"/>
<path d="M224.489 228.17C239.625 223.92 250.453 196.501 242.71 201.857C236.577 206.099 223.341 209.566 217.59 210.88C219.322 211.244 223.167 222.555 224.489 228.17Z" fill="#FF9E53"/>
<ellipse cx="201.776" cy="142.288" rx="3.38573" ry="7.02944" fill="#FF770F"/>
<path d="M189.56 185.208H203.997" stroke="#FF770F" stroke-width="4.65719" stroke-linecap="round"/>
<path d="M187.464 122.801C162.384 90.9009 197.165 65.4442 215.026 62.7298C216.964 62.4352 218.912 62.1079 220.761 61.4548C257.622 48.433 282.909 65.232 291.087 75.5303C329.741 93.4605 306.356 146.514 304.127 149.58C302.264 152.141 292.484 175.116 288.059 186.604C285.265 185.859 276.805 177.6 272.924 173.564C263.796 177.849 260.893 174.418 260.582 172.167C281.539 168.674 285.498 141.662 272.924 135.608C262.864 130.765 257.4 143.68 255.925 150.744H243.35L239.625 131.649L217.969 127.458L208.654 106.733L205.627 122.801H187.464Z" fill="#FF770F"/>
</g>
<defs>
<clipPath id="clip0_274_3626">
<rect width="450" height="330" fill="white" transform="translate(0.967773)"/>
</clipPath>
</defs>
</svg>
