<svg width="451" height="330" viewBox="0 0 451 330" fill="none" xmlns="http://www.w3.org/2000/svg">
<g clip-path="url(#clip0_333_2263)">
<rect width="450" height="330" transform="translate(0.733887)" fill="white"/>
<path d="M307.201 80.3773C307.201 80.3773 260.045 135.294 184.593 102.538C109.142 69.7815 33.6924 158.416 98.663 212.369C163.634 266.322 100.055 295.969 144.194 329.035C194.361 366.617 238.037 290.408 277.858 307.751C365.745 346.025 410.837 322.093 418.039 282.093C418.039 205.593 357.501 203.698 382.651 163.234C407.801 122.769 352.295 38.6326 307.201 80.3773Z" fill="#FFEFE3"/>
<circle cx="49.7339" cy="237.519" r="19.5718" fill="#FFEFE3"/>
<circle cx="407.909" cy="134.399" r="14.1162" fill="#FFEFE3"/>
<path d="M204.254 239.842C185.934 235.033 166.564 213.125 159.169 202.772C151.631 203.536 131.632 208.898 111.937 224.241C87.3192 243.421 82.739 297.523 77.3001 326.721C72.9491 350.079 87.987 362.026 93.6167 362.503L268.233 360.213L266.229 325.003C268.29 342.637 283.5 347.999 290.847 348.476C329.09 350.079 348.134 295.078 353.143 267.216C333.792 268.59 320.522 256.397 316.037 250.291L298.862 274.909C287.87 218.345 244.283 202.772 223.863 202.057C222.832 223.927 210.361 236.36 204.254 239.842Z" fill="#FF770F"/>
<path d="M197.818 270.699C198.722 265.133 203.544 261.054 209.183 261.085L267.201 261.404C274.365 261.444 279.733 267.977 278.383 275.013L263.254 353.836C262.215 359.252 257.462 363.158 251.946 363.127L196.253 362.82C189.223 362.781 183.887 356.474 185.014 349.535L197.818 270.699Z" fill="#FF9E53"/>
<path d="M164.322 318.992C157.337 326.32 161.03 352.15 163.177 361.644C173.291 363.457 197.384 361.644 208.119 356.634C220.195 350.999 223.004 346.902 222.575 344.755C228.186 340.976 227.966 335.07 227.155 332.589C232.995 326.52 230.447 322.427 228.443 321.139C232.336 314.498 228.443 312.36 226.01 312.122L191.802 313.553L192.661 302.818C185.839 305.299 171.307 311.664 164.322 318.992Z" fill="#FFB983"/>
<path d="M136.555 128.775C144.799 117.554 153.826 125.34 157.308 130.636L163.034 89.7018C164.131 83.5951 173.797 73.557 203.682 82.2592C233.567 90.9614 249.626 87.9843 253.92 85.408C257.021 94.4251 262.336 120.245 258.786 151.39C255.237 182.535 233.834 193.183 223.577 194.615V204.49C224.149 226.131 210.838 237.362 204.111 240.272C184.875 236.036 165.562 213.412 158.31 202.63C164.723 195.76 160.314 169.615 157.308 157.401C146.288 163.126 126.25 142.802 136.555 128.775Z" fill="#FFB983"/>
<path d="M161.459 60.0741C123.215 71.5243 128.635 111.218 136.126 129.634C148.435 113.604 156.45 133.069 158.024 132.211C159.284 131.524 160.839 125.245 161.459 122.192C167.642 109.482 170.715 93.3277 171.478 86.8392C180.495 86.8392 201.964 92.1349 204.97 91.133C207.375 90.3315 205.972 85.8373 204.97 83.6904C226.382 92.7361 246.429 89.5586 253.777 86.8392C256.181 89.8163 258.977 111.648 260.074 122.192C268.433 107.077 264.416 88.509 261.362 81.1141C268.805 75.2459 268.948 61.2193 263.652 61.7918C259.416 62.2499 250.246 57.5933 246.191 55.2077C210.924 29.4447 175.009 47.7174 161.459 60.0741Z" fill="#FF770F"/>
<path d="M246.681 106.168C239.201 101.312 233.311 102.918 230.173 105.164C229.021 105.987 228.005 107.284 228.255 108.677C228.497 110.026 229.887 110.379 231.024 110.355C231.403 110.348 231.777 110.246 232.137 110.126C240.305 107.413 241.57 109.843 246.263 111.313C248.491 112.012 249.233 111.246 249.314 110.145C249.437 108.466 248.092 107.085 246.681 106.168Z" fill="#FF770F"/>
<path d="M196.87 103.572C186.65 102.813 181.722 107.802 179.974 111.993C179.359 113.466 180.767 114.515 182.195 113.803C185.657 112.075 191.001 109.529 198.171 109.739C201.737 109.844 203.168 109.103 203.462 108.082C204.293 105.206 199.856 103.794 196.87 103.572Z" fill="#FF770F"/>
<ellipse cx="193.85" cy="126.772" rx="5.1967" ry="6.87013" fill="#FF770F"/>
<ellipse cx="237.79" cy="126.772" rx="5.1967" ry="6.87013" fill="#FF770F"/>
<path d="M221.573 126.485C221.907 129.491 223.017 135.746 229.429 140.212C235.841 144.677 221.557 151.376 215.116 148.8" stroke="#FF770F" stroke-width="4.58009" stroke-linecap="round"/>
<path d="M194.522 159.118C199.221 164.533 213.143 172.858 231.234 162.839" stroke="#FF770F" stroke-width="4.58009" stroke-linecap="round"/>
<path d="M187.489 189.035C198.899 194.502 216.038 195.064 223.577 194.614V206.637C198.364 204.682 188.609 195.89 186.091 190.178C185.709 189.309 186.633 188.625 187.489 189.035Z" fill="#FF9E53"/>
<path d="M332.64 211.503C320.617 219.976 316.848 240.797 316.467 250.148C324.253 268.697 344.523 268.446 353.111 266.299C352.653 264.467 354.161 262.005 354.972 261.004C383.597 246.405 400.339 221.952 403.774 218.803C406.523 216.284 405.492 212.887 404.633 211.503C412.19 199.709 404.92 197.334 400.339 197.62C399.194 194.757 397.477 194.71 396.761 195.043C393.212 186.112 364.748 204.299 350.96 214.509C354.634 209.881 360.893 199.767 356.542 196.332C351.103 192.038 347.668 200.912 332.64 211.503Z" fill="#FFB983"/>
<path d="M357.544 218.409C367.683 210.706 386.202 196.553 394.901 195.187" stroke="#FF770F" stroke-width="3.43507" stroke-linecap="round"/>
<path d="M363.412 222.095C373.84 214.014 390.668 201.642 400.053 199.194" stroke="#FF770F" stroke-width="3.43507" stroke-linecap="round"/>
<path d="M370.139 228.249C378.016 221.532 392.994 210.132 399.325 209.781C400.403 209.735 402.758 209.771 403.56 210.286" stroke="#FF770F" stroke-width="3.43507" stroke-linecap="round"/>
<path d="M357.258 218.66C360.263 219.805 367.162 223.756 370.712 230.397" stroke="#FF770F" stroke-width="3.43507" stroke-linecap="round"/>
<path d="M338.651 243.993C341.371 240.081 349.243 232.972 358.975 235.835" stroke="#FF770F" stroke-width="3.43507" stroke-linecap="round"/>
<path d="M198.529 326.292C207.689 325.123 225.237 323.458 227.584 321.282" stroke="#FF770F" stroke-width="3.43507" stroke-linecap="round"/>
<path d="M113.941 316.559C125.343 316.178 149.866 315.901 163.034 317.848" stroke="#FF9E53" stroke-width="3.43507" stroke-linecap="round"/>
<path d="M139.561 273.621C138.072 275.224 133.788 302.151 131.832 315.414C133.549 316.225 136.698 317.361 135.553 315.414C134.408 313.468 137.748 286.741 139.561 273.621Z" fill="#FF9E53"/>
<path d="M358.976 131.552C358.976 149.101 344.751 163.326 327.202 163.326C323.116 163.333 319.067 162.546 315.28 161.01C315.202 161.019 315.124 161.023 315.045 161.023H301.139C300.691 161.024 300.248 160.936 299.834 160.764C299.421 160.593 299.045 160.342 298.729 160.026C298.412 159.709 298.161 159.334 297.99 158.92C297.819 158.507 297.731 158.063 297.731 157.616V143.442C296.204 139.665 295.422 135.627 295.429 131.553C295.429 114.004 309.653 99.7793 327.202 99.7793C344.751 99.7793 358.976 114.003 358.976 131.552Z" fill="#FFB983"/>
<path d="M312.467 137.999C315.01 137.999 317.071 135.937 317.071 133.394C317.071 130.851 315.01 128.789 312.467 128.789C309.923 128.789 307.862 130.851 307.862 133.394C307.862 135.937 309.923 137.999 312.467 137.999Z" fill="#FFEFE3"/>
<path d="M325.82 137.999C328.364 137.999 330.425 135.937 330.425 133.394C330.425 130.851 328.364 128.789 325.82 128.789C323.277 128.789 321.216 130.851 321.216 133.394C321.216 135.937 323.277 137.999 325.82 137.999Z" fill="#FFEFE3"/>
<path d="M339.635 137.999C342.178 137.999 344.24 135.937 344.24 133.394C344.24 130.851 342.178 128.789 339.635 128.789C337.092 128.789 335.03 130.851 335.03 133.394C335.03 135.937 337.092 137.999 339.635 137.999Z" fill="#FFEFE3"/>
</g>
<defs>
<clipPath id="clip0_333_2263">
<rect width="450" height="330" fill="white" transform="translate(0.733887)"/>
</clipPath>
</defs>
</svg>
