<svg width="451" height="330" viewBox="0 0 451 330" fill="none" xmlns="http://www.w3.org/2000/svg">
<g clip-path="url(#clip0_191_3434)">
<rect width="450" height="330" transform="translate(0.5)" fill="white"/>
<circle cx="398.928" cy="223.312" r="19.5718" fill="#FFEFE3"/>
<circle cx="43.3838" cy="151.575" r="14.1162" fill="#FFEFE3"/>
<path d="M142.679 83.9312C142.679 83.9312 193.936 116.978 271.86 55.1862C341.064 0.30949 397.569 86.8925 397.965 128.355C398.478 182.067 328.761 225.042 362.594 260.321C396.427 295.599 295.498 353.855 241.103 303.439C173.437 240.722 155.105 291.679 116.536 291.679C88.854 291.679 32.0208 233.241 70.3996 189.765C102.695 153.181 85.0822 141.039 76.5509 128.355C64.2481 110.063 93.4676 60.4126 142.679 83.9312Z" fill="#FFEFE3"/>
<path d="M150.227 230.379C152.227 224.479 157.144 220.921 159.352 219.879C162.103 219.879 168.352 229.129 183.852 240.379C197.682 250.416 224.852 273.129 233.477 287.254C233.644 285.087 233.277 278.404 230.477 269.004C227.677 259.604 228.477 251.671 229.227 248.879C276.477 260.004 300.455 305.514 309.352 323.677C318.248 341.839 307.539 346.595 284.248 346.339C234.956 345.798 117.299 340.789 101.999 342.089C82.8737 343.714 91.8524 312.129 100.602 284.629C109.352 257.129 132.852 246.879 137.352 243.254C141.852 239.629 147.727 237.754 150.227 230.379Z" fill="#FF770F"/>
<path d="M162.477 331.629H169.602C170.461 312.455 164.183 301.236 160.493 297.494C162.105 307.386 162.487 324.372 162.477 331.629Z" fill="#FF9E53"/>
<path d="M259.977 88.0035C258.477 106.903 226.435 112.212 210.602 112.503C210.602 116.795 209.552 127.328 205.352 135.128C201.152 142.928 199.602 151.128 199.352 154.253L187.352 157.253C176.752 139.053 165.185 147.67 160.727 154.253C154.827 166.703 165.852 178.691 172.102 183.128C172.902 195.328 166.623 202.003 163.79 204.003C137.29 184.253 132.852 160.878 130.602 151.128C128.352 141.378 129.352 104.628 164.602 81.3785C199.852 58.1285 261.852 64.3785 259.977 88.0035Z" fill="#FF770F"/>
<ellipse cx="326.227" cy="190.879" rx="9.40625" ry="8.4375" fill="#FF770F"/>
<path d="M326.227 106.645C342.243 106.645 355.227 119.628 355.227 135.645C355.227 144.77 351.011 152.909 344.422 158.225C343.377 159.068 342.414 160.042 341.885 161.276C340.843 163.708 340.118 166.815 340.352 170.497C340.604 174.459 340.655 178.709 340.617 182.401C340.568 187.164 336.633 190.878 331.869 190.878H320.335C315.571 190.878 311.636 187.164 311.587 182.401C311.549 178.709 311.6 174.459 311.852 170.497C312.102 166.566 311.258 163.29 310.102 160.792C309.586 159.678 308.711 158.788 307.764 158.006C301.329 152.687 297.227 144.645 297.227 135.645C297.227 119.628 310.211 106.645 326.227 106.645Z" fill="#FFB983"/>
<path d="M326.102 155.879V175.504" stroke="#FFEFE3" stroke-width="6" stroke-linecap="round"/>
<path d="M309.227 177.004H342.227" stroke="#FF770F" stroke-width="6" stroke-linecap="round"/>
<path d="M309.227 186.754H342.227" stroke="#FF770F" stroke-width="6" stroke-linecap="round"/>
<path d="M315.352 143.379L325.727 157.129" stroke="#FFEFE3" stroke-width="6" stroke-linecap="round"/>
<path d="M336.852 143.379L326.477 157.129" stroke="#FFEFE3" stroke-width="6" stroke-linecap="round"/>
<path d="M326.102 81.8789V96.8789" stroke="#FFB983" stroke-width="6" stroke-linecap="round"/>
<path d="M379.357 135.646L364.357 135.646" stroke="#FFB983" stroke-width="6" stroke-linecap="round"/>
<path d="M289.043 135.646L274.043 135.646" stroke="#FFB983" stroke-width="6" stroke-linecap="round"/>
<path d="M298.975 108.325L288.368 97.7186" stroke="#FFB983" stroke-width="6" stroke-linecap="round"/>
<path d="M353.75 108.325L364.357 97.7186" stroke="#FFB983" stroke-width="6" stroke-linecap="round"/>
<path d="M263.352 135.879C264.052 121.279 257.571 106.118 252.946 100.535C239.602 110.129 218.269 112.462 210.102 111.754C209.602 122.629 205.102 135.004 202.602 139.379C200.602 142.879 199.102 150.421 198.602 153.754L188.477 157.129C179.577 141.729 169.019 144.879 164.852 148.379C150.752 161.879 162.894 176.837 170.727 182.629C171.627 192.429 166.269 200.796 163.477 203.754C163.827 209.054 160.373 217.046 158.602 220.379C162.352 222.629 199.977 255.504 207.352 260.129C214.727 264.754 230.977 289.879 233.352 287.379C235.727 284.879 231.227 274.504 229.227 261.879C227.227 249.254 232.852 226.129 234.352 226.754C235.852 227.379 246.79 228.504 252.477 226.754C265.657 222.699 263.352 203.879 263.352 202.629C263.352 201.379 266.852 199.254 266.602 194.504C266.402 190.704 267.852 184.337 268.602 181.629C272.436 179.754 280.377 175.079 281.477 171.379C282.852 166.754 262.477 154.129 263.352 135.879Z" fill="#FFB983"/>
<path d="M170.665 185.824V182.597C176.558 184.73 181.942 183.891 183.897 183.157C184.807 183.802 185.875 185.797 182.874 188.624C179.873 191.451 173.484 187.935 170.665 185.824Z" fill="#FF770F"/>
<path d="M247.727 196.128C251.075 195.586 258.912 194.578 263.477 194.878" stroke="#FF770F" stroke-width="4" stroke-linecap="round"/>
<path d="M229.852 140.378C233.519 137.378 243.852 132.728 255.852 138.128" stroke="#FF770F" stroke-width="4" stroke-linecap="round"/>
<ellipse cx="246.005" cy="151.784" rx="4.26855" ry="6.84375" fill="#FF770F"/>
<path d="M200.977 212.003C209.477 217.903 226.769 224.211 234.352 226.628C232.052 230.228 230.31 239.649 229.727 243.815C207.427 232.515 201.269 217.836 200.977 212.003Z" fill="#FF9E53"/>
<path d="M274.727 177.94C271.477 178.045 265.04 178.653 265.29 180.253C265.54 181.853 271.686 179.378 274.727 177.94Z" fill="#FF770F"/>
</g>
<defs>
<clipPath id="clip0_191_3434">
<rect width="450" height="330" fill="white" transform="translate(0.5)"/>
</clipPath>
</defs>
</svg>
